<?xml version="1.0" encoding="utf-8"?>
<!-- Generator: Adobe Illustrator 19.0.0, SVG Export Plug-In . SVG Version: 6.00 Build 0)  -->
<svg version="1.1" id="Layer_1" xmlns="http://www.w3.org/2000/svg" xmlns:xlink="http://www.w3.org/1999/xlink" x="0px" y="0px"
	 viewBox="0 0 450 450" style="enable-background:new 0 0 450 450;" xml:space="preserve">
<style type="text/css">
	.st0{fill:#6CE0E0;}
	.st1{fill:#2B7D7D;}
	.st2{fill:#007B7F;}
	.st3{fill:#FFFFCC;}
	.st4{fill:#AA4513;}
	.st5{fill:#BF693D;}
	.st6{fill:#FFCC33;}
	.st7{fill:#F2C388;}
	.st8{fill:#FFFFFF;}
	.st9{fill:#090307;}
	.st10{fill:#A82F38;}
	.st11{fill:#252024;}
	.st12{fill:#A13635;}
	.st13{fill:#222322;}
</style>
<rect class="st0" width="450" height="450"/>
<ellipse class="st1" cx="225" cy="431.5" rx="122.4" ry="8.1"/>
<g>
	<circle class="st2" cx="225" cy="226.8" r="177.6"/>
	<path class="st3" d="M225,34C118.5,34,32.1,120.3,32.1,226.8c0,106.5,86.4,192.9,192.9,192.9c106.5,0,192.9-86.4,192.9-192.9
		C417.9,120.3,331.5,34,225,34z M318.1,372.5l-6.4-8.9c-2.2-3.2-6.5-4.1-9.8-1.9c-3.2,2.2-4.1,6.5-1.9,9.8l5.9,8.1
		c-22.2,11.8-47.2,18.8-73.8,19.9v-17.4c0-3.9-3.1-7-7-7c-3.9,0-7,3.2-7,7v17.4c-26.9-1.1-52.2-8.3-74.6-20.3l5.7-8.1
		c2.2-3.2,1.3-7.6-1.9-9.8c-3.2-2.2-7.6-1.3-9.8,1.9l-6.2,8.8c-20.6-13.3-38.2-30.9-51.5-51.5l9.2-5.1c3.3-2,4.3-6.4,2.3-9.7
		c-2-3.3-6.4-4.3-9.7-2.3l-8.9,5c-12.1-22.6-19.4-48.3-20.3-75.6h17.5c3.9,0,7-3.1,7-7c0-3.9-3.1-7-7-7H52.3
		c1.2-26,8.1-50.5,19.6-72.3l8.6,5.2c3.3,2,7.6,1,9.7-2.3c2.1-3.3,1-7.6-2.3-9.7l-8.9-5.5c13.2-20.9,30.8-38.7,51.5-52.2l5.7,8.6
		c2.2,3.2,6.5,4.1,9.8,1.9c3.2-2.2,4.1-6.5,1.9-9.8l-5.3-8c22.6-12.3,48.2-19.7,75.5-20.8v17.4c0,3.9,3.1,7,7,7c3.9,0,7-3.1,7-7
		V54.1c26.9,1.1,52.3,8.3,74.7,20.4l-5.5,8c-2.2,3.2-1.3,7.6,1.9,9.8c3.2,2.2,7.6,1.3,9.8-1.9l6-8.7c20.8,13.5,38.5,31.3,51.9,52.2
		l-8.3,5.5c-3.3,2-4.3,6.4-2.3,9.7c2,3.3,6.4,4.3,9.7,2.3l8-5.3c11.7,22.2,18.8,47.2,19.9,73.8h-21c-3.9,0-7,3.1-7,7
		c0,3.9,3.1,7,7,7h21c-1.1,27.1-8.4,52.6-20.5,75l-8.7-5.5c-3.3-2-7.6-1-9.7,2.3c-2.1,3.3-1,7.6,2.3,9.7l8.9,5.6
		C356.5,341.7,338.8,359.3,318.1,372.5z"/>
</g>
<g>
	<g>
		<path class="st3" d="M221.1,103.1h-12.8v-1.4c0.4,0,1-0.1,1.8-0.2c0.8-0.1,1.4-0.2,1.7-0.3c0.4-0.1,0.7-0.3,0.9-0.6
			c0.2-0.3,0.3-0.7,0.3-1.3V86h-4.7v-1.6h1c1.4,0,2.6-0.3,3.7-0.8c1.1-0.5,1.9-1.1,2.3-1.6h1.6c0,0.8-0.1,1.8-0.1,2.9
			s-0.1,2.1-0.1,3v11.3c0,0.4,0.1,0.8,0.3,1.2c0.2,0.3,0.5,0.6,0.8,0.8c0.3,0.1,0.9,0.3,1.6,0.4c0.7,0.1,1.3,0.2,1.7,0.2V103.1z"/>
		<path class="st3" d="M242.4,103.1h-17.8v-2.6c0.3-0.4,0.8-0.8,1.4-1.3c0.6-0.5,1.3-1,2.2-1.6c0.5-0.3,1.1-0.7,1.8-1.1
			c0.7-0.4,1.5-0.8,2.4-1.3c1-0.5,1.8-1,2.3-1.4c0.5-0.4,1-0.9,1.5-1.5c0.3-0.4,0.5-0.9,0.7-1.5c0.2-0.6,0.3-1.4,0.3-2.5
			c0-1.6-0.4-2.7-1.3-3.5c-0.9-0.7-1.9-1.1-3.3-1.1c-0.8,0-1.6,0.2-2.3,0.5c-0.7,0.3-1.3,0.8-1.7,1.3c0.1,0.4,0.2,0.9,0.3,1.4
			c0.1,0.6,0.2,1.1,0.2,1.6c0,0.5-0.2,0.9-0.6,1.3c-0.4,0.4-1,0.6-1.8,0.6c-0.6,0-1.1-0.2-1.5-0.7c-0.3-0.4-0.5-1-0.5-1.8
			c0-0.7,0.2-1.4,0.6-2.1c0.4-0.7,0.9-1.3,1.6-1.9c0.7-0.6,1.6-1,2.6-1.4c1-0.4,2.1-0.5,3.3-0.5c2.6,0,4.7,0.6,6.2,1.7
			c1.5,1.2,2.3,2.7,2.3,4.7c0,0.9-0.1,1.8-0.4,2.5c-0.3,0.8-0.7,1.4-1.3,2c-0.7,0.6-1.5,1.2-2.4,1.7c-0.9,0.5-2.3,1.1-4.1,1.9
			c-1.1,0.5-2.1,1-3.1,1.6c-1,0.5-1.7,1.1-2.3,1.6h14.6V103.1z"/>
	</g>
</g>
<g>
	<g>
		<path class="st3" d="M234.4,361.6c0,1.3-0.2,2.6-0.7,3.7c-0.5,1.2-1.1,2.1-1.9,2.9c-0.9,0.9-2,1.6-3.1,2.1
			c-1.1,0.4-2.3,0.7-3.5,0.7c-1.4,0-2.7-0.3-3.8-0.8c-1.1-0.5-2.1-1.3-2.9-2.2c-0.8-1-1.4-2.1-1.9-3.5c-0.4-1.4-0.7-3-0.7-4.7
			c0-4.5,1.3-8.3,4-11.5c2.7-3.1,6.3-5,10.8-5.6l0.3,1.7l-1.7,0.3c-2.8,0.9-4.9,2.3-6.4,4.2c-1.5,1.9-2.5,4.2-2.9,6.8
			c1.1-1,2.2-1.6,3.2-2c1.1-0.4,2.2-0.6,3.4-0.6c2.1,0,3.9,0.8,5.4,2.4C233.7,357.1,234.4,359.1,234.4,361.6z M230.3,362.1
			c0-2.1-0.5-3.7-1.4-5c-0.9-1.2-2.2-1.9-3.8-1.9c-1,0-1.8,0.2-2.7,0.5c-0.8,0.4-1.6,1-2.4,1.8c0,0.2,0,0.5-0.1,1.1c0,0.6,0,1,0,1.3
			c0,3,0.5,5.3,1.5,7c1,1.7,2.3,2.5,3.8,2.5c1.5,0,2.7-0.7,3.7-2C229.8,366.2,230.3,364.4,230.3,362.1z"/>
	</g>
</g>
<g>
	<g>
		<path class="st3" d="M301.9,125.4H289v-1.4c0.4,0,1-0.1,1.8-0.2c0.8-0.1,1.4-0.2,1.7-0.3c0.4-0.1,0.7-0.3,0.9-0.6
			c0.2-0.3,0.3-0.7,0.3-1.3v-13.4H289v-1.6h1c1.4,0,2.6-0.3,3.7-0.8c1.1-0.5,1.9-1.1,2.3-1.6h1.6c0,0.8-0.1,1.8-0.1,2.9
			c0,1.1-0.1,2.1-0.1,3v11.3c0,0.4,0.1,0.8,0.3,1.2c0.2,0.3,0.5,0.6,0.8,0.8c0.3,0.1,0.9,0.3,1.6,0.4c0.7,0.1,1.3,0.2,1.7,0.2V125.4
			z"/>
	</g>
</g>
<g>
	<g>
		<path class="st3" d="M298.1,336.7c0.8,0.7,1.5,1.5,2.1,2.6c0.6,1,0.8,2.3,0.8,3.9c0,2.7-0.9,5-2.8,6.8c-1.9,1.8-4.2,2.7-7.1,2.7
			c-2.2,0-4.1-0.5-5.6-1.6c-1.5-1.1-2.3-2.3-2.3-3.7c0-0.6,0.2-1.2,0.5-1.7c0.3-0.5,0.8-0.7,1.5-0.7c0.8,0,1.3,0.2,1.7,0.6
			c0.4,0.4,0.6,0.8,0.6,1.3c0,0.4-0.1,0.9-0.2,1.5c-0.1,0.6-0.2,1.1-0.3,1.4c0.1,0.1,0.3,0.2,0.5,0.4c0.2,0.2,0.5,0.3,0.8,0.4
			c0.3,0.1,0.7,0.3,1.2,0.4c0.5,0.1,1,0.2,1.7,0.2c0.8,0,1.6-0.2,2.3-0.5c0.7-0.3,1.3-0.8,1.8-1.5c0.5-0.7,1-1.5,1.2-2.4
			c0.3-0.9,0.4-2.1,0.4-3.5c0-1.8-0.5-3.3-1.5-4.4c-1-1.2-2.3-1.8-3.9-1.8c-1,0-2,0.2-2.8,0.6c-0.9,0.4-1.7,1-2.4,1.9l-1.3-0.5
			l1.6-13.7h13.6v3.4h-12.1l-1,8.1c0.6-0.4,1.3-0.8,2.3-1.2c0.9-0.4,2-0.6,3.1-0.6c0.9,0,1.9,0.1,2.9,0.4
			C296.4,335.5,297.3,336,298.1,336.7z"/>
	</g>
</g>
<g>
	<g>
		<path class="st3" d="M162.8,121.4h-12.8v-1.4c0.4,0,1-0.1,1.8-0.2c0.8-0.1,1.4-0.2,1.7-0.3c0.4-0.1,0.7-0.3,0.9-0.6
			c0.2-0.3,0.3-0.7,0.3-1.3v-13.4h-4.7v-1.6h1c1.4,0,2.6-0.3,3.7-0.8c1.1-0.5,1.9-1.1,2.3-1.6h1.6c0,0.8-0.1,1.8-0.1,2.9
			s-0.1,2.1-0.1,3v11.3c0,0.4,0.1,0.8,0.3,1.2c0.2,0.3,0.5,0.6,0.8,0.8c0.3,0.1,0.9,0.3,1.6,0.4c0.7,0.1,1.3,0.2,1.7,0.2V121.4z"/>
		<path class="st3" d="M179.5,121.4h-12.8v-1.4c0.4,0,1-0.1,1.8-0.2c0.8-0.1,1.4-0.2,1.7-0.3c0.4-0.1,0.7-0.3,0.9-0.6
			c0.2-0.3,0.3-0.7,0.3-1.3v-13.4h-4.7v-1.6h1c1.4,0,2.6-0.3,3.7-0.8c1.1-0.5,1.9-1.1,2.3-1.6h1.6c0,0.8-0.1,1.8-0.1,2.9
			s-0.1,2.1-0.1,3v11.3c0,0.4,0.1,0.8,0.3,1.2c0.2,0.3,0.5,0.6,0.8,0.8c0.3,0.1,0.9,0.3,1.6,0.4c0.7,0.1,1.3,0.2,1.7,0.2V121.4z"/>
	</g>
</g>
<g>
	<g>
		<path class="st3" d="M168.6,326.4L155,352.5h-2.4l12.8-24.2h-7.5c-1.1,0-2,0-2.6,0c-0.6,0-1.2,0.1-1.7,0.4
			c-0.4,0.2-0.7,0.6-1.1,1.3c-0.3,0.7-0.5,1.5-0.7,2.6h-1.2v-7.5h17.9V326.4z"/>
	</g>
</g>
<g>
	<g>
		<path class="st3" d="M351.7,173.4h-17.8v-2.6c0.3-0.4,0.8-0.8,1.4-1.3c0.6-0.5,1.3-1,2.2-1.6c0.5-0.3,1.1-0.7,1.8-1.1
			c0.7-0.4,1.5-0.8,2.4-1.3c1-0.5,1.8-1,2.3-1.4c0.5-0.4,1-0.9,1.5-1.5c0.3-0.4,0.5-0.9,0.7-1.5c0.2-0.6,0.3-1.4,0.3-2.5
			c0-1.6-0.4-2.7-1.3-3.5c-0.9-0.7-1.9-1.1-3.3-1.1c-0.8,0-1.6,0.2-2.3,0.5c-0.7,0.3-1.3,0.8-1.7,1.3c0.1,0.4,0.2,0.9,0.3,1.4
			c0.1,0.6,0.2,1.1,0.2,1.6c0,0.5-0.2,0.9-0.6,1.3c-0.4,0.4-1,0.6-1.8,0.6c-0.6,0-1.1-0.2-1.5-0.7c-0.3-0.4-0.5-1-0.5-1.8
			c0-0.7,0.2-1.4,0.6-2.1c0.4-0.7,0.9-1.3,1.6-1.9c0.7-0.6,1.6-1,2.6-1.4c1-0.4,2.1-0.5,3.3-0.5c2.6,0,4.7,0.6,6.2,1.7
			c1.5,1.2,2.3,2.7,2.3,4.7c0,0.9-0.1,1.8-0.4,2.5c-0.3,0.8-0.7,1.4-1.3,2c-0.7,0.6-1.5,1.2-2.4,1.7c-0.9,0.5-2.3,1.1-4.1,1.9
			c-1.1,0.5-2.1,1-3.1,1.6c-1,0.5-1.7,1.1-2.3,1.6h14.6V173.4z"/>
	</g>
</g>
<g>
	<g>
		<path class="st3" d="M350.4,303.1h-3.9v8.7h-3.7v-8.7h-12.2v-2.9l13.3-16.3h2.5v16.7h3.9V303.1z M342.9,300.6v-12.5l-10.3,12.5
			H342.9z"/>
	</g>
</g>
<g>
	<g>
		<path class="st3" d="M112.5,170.1H99.7v-1.4c0.4,0,1-0.1,1.8-0.2c0.8-0.1,1.4-0.2,1.7-0.3c0.4-0.1,0.7-0.3,0.9-0.6
			c0.2-0.3,0.3-0.7,0.3-1.3V153h-4.7v-1.6h1c1.4,0,2.6-0.3,3.7-0.8c1.1-0.5,1.9-1.1,2.3-1.6h1.6c0,0.8-0.1,1.8-0.1,2.9
			c0,1.1-0.1,2.1-0.1,3v11.3c0,0.4,0.1,0.8,0.3,1.2c0.2,0.3,0.5,0.6,0.8,0.8c0.3,0.1,0.9,0.3,1.6,0.4c0.7,0.1,1.3,0.2,1.7,0.2V170.1
			z"/>
		<path class="st3" d="M133.4,152.3c0.8,1,1.4,2.1,1.8,3.4c0.4,1.3,0.6,2.7,0.6,4.1c0,1.7-0.2,3.3-0.7,4.6c-0.5,1.4-1.2,2.5-2,3.4
			c-0.9,0.9-1.9,1.6-3.2,2.1c-1.2,0.5-2.6,0.7-4.1,0.7c-1.6,0-3.1-0.3-4.4-0.8c-1.3-0.5-2.3-1.3-3.1-2.2c-0.8-1-1.5-2.1-1.9-3.5
			c-0.4-1.3-0.6-2.8-0.6-4.3c0-1.5,0.2-2.9,0.6-4.2c0.4-1.3,1-2.4,1.9-3.4c0.8-1,1.9-1.8,3.1-2.3c1.3-0.6,2.7-0.9,4.4-0.9
			c1.7,0,3.2,0.3,4.5,0.9C131.6,150.5,132.6,151.3,133.4,152.3z M131.7,159.9c0-3-0.5-5.4-1.6-7c-1-1.7-2.4-2.5-4.2-2.5
			c-1.8,0-3.2,0.8-4.3,2.5s-1.6,4-1.6,7c0,2.9,0.5,5.2,1.5,6.9c1,1.7,2.4,2.6,4.3,2.6c1.9,0,3.3-0.9,4.3-2.6
			C131.2,165,131.7,162.7,131.7,159.9z"/>
	</g>
</g>
<g>
	<g>
		<path class="st3" d="M118.4,297.6c0,2.1-0.9,4-2.8,5.5c-1.8,1.5-4.3,2.3-7.3,2.3c-2.8,0-5.1-0.7-6.7-2.1c-1.7-1.4-2.5-3.2-2.5-5.4
			c0-1.6,0.5-3,1.5-4.1c1-1.1,2.5-2,4.4-2.8c-1.6-0.9-2.8-1.9-3.6-3c-0.8-1.1-1.2-2.3-1.2-3.7c0-2.1,0.9-3.8,2.6-5.2
			c1.8-1.4,3.9-2.1,6.3-2.1c2.5,0,4.4,0.7,6,2c1.5,1.3,2.3,3,2.3,5c0,1.3-0.4,2.5-1.3,3.6c-0.8,1.1-2.1,2.1-3.7,2.8
			c2.1,0.9,3.6,1.9,4.6,3C117.9,294.6,118.4,296,118.4,297.6z M114.6,298.5c0-0.8-0.2-1.5-0.5-2.1c-0.3-0.6-0.8-1.2-1.5-1.6
			c-0.6-0.5-1.5-1-2.6-1.5c-1.1-0.5-2.3-1.1-3.6-1.6c-1.2,0.7-2.1,1.5-2.7,2.5c-0.6,1-0.9,2.2-0.9,3.5c0,1.9,0.5,3.4,1.6,4.5
			c1.1,1.1,2.6,1.7,4.4,1.7c1.8,0,3.1-0.5,4.2-1.5C114.1,301.4,114.6,300.1,114.6,298.5z M113.8,283.8c0-1.5-0.5-2.8-1.4-3.8
			c-0.9-1-2.1-1.5-3.5-1.5c-1.4,0-2.6,0.5-3.5,1.4c-0.9,0.9-1.4,2.1-1.4,3.5c0,1.3,0.5,2.5,1.6,3.4c1,0.9,2.9,1.9,5.6,3
			c1-0.6,1.6-1.4,2.1-2.4C113.6,286.4,113.8,285.2,113.8,283.8z"/>
	</g>
</g>
<g>
	<g>
		<path class="st3" d="M355.7,242.5c-1.2,0-2.3-0.1-3.3-0.4c-1-0.3-1.8-0.7-2.6-1.2c-0.7-0.5-1.3-1.1-1.6-1.8
			c-0.4-0.7-0.6-1.3-0.6-2c0-0.6,0.2-1.2,0.5-1.7c0.3-0.5,0.8-0.8,1.5-0.8c0.8,0,1.3,0.2,1.7,0.6c0.4,0.4,0.6,0.8,0.6,1.3
			c0,0.4-0.1,0.9-0.2,1.5c-0.1,0.6-0.2,1.1-0.3,1.3c0.1,0.1,0.3,0.3,0.5,0.5c0.2,0.2,0.5,0.4,0.9,0.5c0.4,0.2,0.8,0.3,1.3,0.5
			c0.4,0.1,1.1,0.2,1.9,0.2c0.8,0,1.5-0.1,2.2-0.4c0.7-0.3,1.3-0.7,1.9-1.2c0.6-0.6,1-1.3,1.3-2c0.3-0.8,0.5-1.8,0.5-3.1
			c0-0.7-0.1-1.4-0.2-2c-0.1-0.7-0.4-1.3-0.8-1.8c-0.4-0.5-0.9-0.9-1.6-1.2c-0.7-0.3-1.5-0.4-2.6-0.4h-2.5v-2.2h1.7
			c1.8,0,3-0.5,3.8-1.4c0.8-1,1.2-2.4,1.2-4.4c0-1.6-0.4-2.8-1.1-3.6c-0.8-0.8-1.8-1.2-3.2-1.2c-0.7,0-1.2,0.1-1.6,0.2
			c-0.4,0.2-0.8,0.3-1,0.5c-0.3,0.2-0.6,0.4-0.8,0.6c-0.2,0.2-0.4,0.4-0.5,0.5c0.1,0.4,0.2,0.9,0.3,1.5c0.1,0.6,0.2,1.2,0.2,1.7
			c0,0.5-0.2,0.9-0.6,1.3c-0.4,0.4-1,0.6-1.8,0.6c-0.7,0-1.2-0.2-1.5-0.7c-0.3-0.5-0.5-1-0.5-1.7c0-0.7,0.2-1.3,0.6-2
			c0.4-0.7,0.9-1.3,1.6-1.9c0.7-0.6,1.6-1.1,2.6-1.4c1-0.4,2.2-0.6,3.6-0.6c1.6,0,2.9,0.2,3.9,0.7c1,0.5,1.8,1,2.4,1.7
			c0.6,0.6,1,1.3,1.2,2c0.2,0.7,0.3,1.3,0.3,1.8c0,0.6-0.1,1.3-0.3,1.9c-0.2,0.6-0.5,1.2-0.9,1.8c-0.4,0.6-1,1.1-1.8,1.6
			c-0.7,0.5-1.6,0.9-2.8,1.2v0.3c0.7,0.1,1.5,0.2,2.3,0.5c0.8,0.3,1.5,0.6,2.2,1.1c0.7,0.5,1.2,1.2,1.7,2c0.4,0.8,0.6,1.9,0.6,3.1
			c0,2.4-1,4.4-2.9,5.9C361.1,241.8,358.7,242.5,355.7,242.5z"/>
	</g>
</g>
<g>
	<g>
		<path class="st3" d="M99.6,225.8c0,2.2-0.3,4.3-1,6.2c-0.7,1.9-1.7,3.7-3,5.1c-1.3,1.4-2.8,2.6-4.7,3.6c-1.8,1-3.9,1.6-6.2,1.9
			l-0.3-1.7l1.7-0.3c2.7-0.9,4.9-2.2,6.4-4c1.5-1.8,2.5-4.1,3-6.8c-1,0.9-2.1,1.5-3.1,2c-1,0.4-2.2,0.6-3.5,0.6
			c-2.1,0-3.9-0.8-5.4-2.4c-1.5-1.6-2.3-3.6-2.3-6.1c0-2.6,0.9-4.8,2.7-6.6c1.8-1.8,4-2.7,6.6-2.7c2.8,0,5.1,1,6.8,3
			C98.7,219.6,99.6,222.3,99.6,225.8z M95.5,225.6c0-3-0.5-5.3-1.5-7c-1-1.7-2.3-2.5-3.8-2.5c-1.5,0-2.7,0.7-3.7,2
			c-0.9,1.3-1.4,3.1-1.4,5.4c0,2.1,0.5,3.7,1.4,5c0.9,1.2,2.2,1.9,3.8,1.9c1,0,1.9-0.2,2.7-0.5c0.8-0.4,1.6-0.9,2.3-1.7
			c0-0.1,0-0.2,0-0.3c0-0.2,0-0.4,0-0.6c0-0.2,0-0.4,0-0.6C95.5,226.1,95.5,225.8,95.5,225.6z"/>
	</g>
</g>
<g>
	<path class="st3" d="M244.9,216.8c-4.8-9.1-16.2-12.7-25.3-7.8c-9.1,4.8-12.6,16.2-7.8,25.3c4.8,9.2,16.2,12.7,25.3,7.8
		C246.3,237.3,249.8,226,244.9,216.8z"/>
	<path class="st3" d="M238.7,228.6c-3.1-5.2-8-8-10.9-6.3c-2.9,1.7-2.7,7.3,0.4,12.5l43.9,73.7c0.1,0.2,0.2,0.3,0.3,0.5l-3.8,2.1
		l18.1,11l0.1-21.2L283,303c-0.1-0.3-0.3-0.5-0.4-0.8L238.7,228.6z"/>
	<path class="st3" d="M288.2,239.8l-16.9-17.3l-1.5,5.3l-38.1-11.4c-4.7-1.4-9.3,0.3-10.3,3.8c-0.9,3.5,2.1,7.5,6.9,9l37.8,11.3
		l-1.4,4.9L288.2,239.8z"/>
</g>
<g>
	<g>
		<path class="st4" d="M238,295.1c-1.9-1.9-4.9-1.9-6.8,0l-5.2,5c-1.9,1.8-2,4.9-0.2,6.8l-8.2,7.8l17.9,18.6l27.5-26.4L245,288.3
			L238,295.1z M227.4,305.9c-1.5-1.5-1.3-4.1,0.4-5.7l3.4-3.3c1.7-1.6,4.3-1.7,5.8-0.1L227.4,305.9z"/>
		<polygon class="st5" points="219.6,314.6 244.9,290.3 242.2,311.7 		"/>
		<g>
			<path class="st6" d="M243.9,308.3c0.9,1,0.9,2.5-0.1,3.5l-1.6,1.5c-1,0.9-2.5,0.9-3.5-0.1l0,0c-0.9-1-0.9-2.5,0.1-3.5l1.6-1.5
				C241.4,307.3,242.9,307.3,243.9,308.3L243.9,308.3z"/>
			<path class="st5" d="M243,309.1c0.6,0.7,0.6,1.7,0,2.3l-1,1c-0.7,0.6-1.7,0.6-2.3,0l0,0c-0.6-0.7-0.6-1.7,0-2.3l1.1-1
				C241.4,308.4,242.4,308.5,243,309.1L243,309.1z"/>
		</g>
	</g>
	<path class="st7" d="M114,242.8c-1.9-2.2-0.2-5.7,6.2,0.2c8.2,7.6,0.6,10.5-5,10.9c-5.6,0.5-1.7-2.6-1.7-2.6c-6-0.3-1-2.9-1-2.9
		c-4.7-0.3,0-2.5,0-2.5C107.2,243.2,114,242.8,114,242.8z"/>
	<path class="st8" d="M163.3,242l-4.4,16.5c0,0-11.1,4.3-38.6-3.8l3.2-10.3C123.4,244.3,137.6,251.1,163.3,242z"/>
	<path class="st7" d="M225.2,302.2c0,0,4.6,5,3.3-0.8c0,0,4.7,2.3,2-1.6c0,0,5.2,2.2,1.6-2.6c0,0,4.9,1.1,1-3
		c-3.9-4-10.9-8.1-11.7,3C220.8,305.9,224.7,305,225.2,302.2z"/>
	<path class="st8" d="M220.6,296.1l8.9-6.1c-16.5-23.5-27.8-27.1-27.8-27.1L188.1,273C213.8,281.9,220.6,296.1,220.6,296.1z"/>
	<path class="st7" d="M183.7,192.1c16-7,41,7.5,35.6,29.2c-5.5,21.7-12.6,37.9-12.6,37.9l-47.4-18l9-18.9l-7.9-8.4
		C160.5,213.9,167.6,199.2,183.7,192.1z"/>
	<path class="st9" d="M218.9,200.4c0.6,0.8,1.1,1.6,1.6,2.4c0.2,0.2,0.4,0.5,0.5,0.7c2.5-2.4,5.9-3.8,5.9-3.8
		c-0.3,3.1-2.3,5.1-4.2,6.2c10.1,2,9.5,3.8,1,4c0.2,0.8,0.3,1.6,0.5,2.4c3.3,17.9-10.8,35.5-10.8,35.5l-7-3.6
		c1.9-3.8,3.7-10.5,3.7-10.5c4.8-3.7,3.8-6.8,3.3-8.2c-1.1-2.7-3.8-2.2-3.8-2.2s-2.7,0.1-4.4,8.4l-3.3-1.5l5.1-20.8
		c-28.1-12.6-28.5-20.1-28.5-20.1C184.5,185.3,204.9,180.8,218.9,200.4z"/>
	<polygon class="st8" points="208.2,258.7 190.2,297.5 142.9,275.6 159.9,238.8 	"/>
	<polygon class="st10" points="177.1,246.7 187,251.3 180,259.7 175.2,276.6 166,283.4 164.6,271.7 175.4,257.2 	"/>
	<path class="st11" d="M192.4,342.6c-0.2,1.2,1,1.5,1.6,1.3c1.3-0.6,3-2.8,3.8-4.5c0.9-2.1,1.2-2.7,2.1-4.8c2.8-6.7-0.2-9.8-0.2-9.8
		l3.8,1.7l3.3-7.5l-3.8-1.7l-3.4-1.5l-6.1,13.9C194.5,330.5,193.1,338.8,192.4,342.6z"/>
	<path class="st11" d="M96.9,288.5c3.4,2,10.6,6.1,11.9,5.4l10.9,10.5l-2.6,2.7l-2.9,3l-6-5.7l2.9-3c0,0-4,1.8-9.3-3.2
		c-1.7-1.5-2.2-2-3.8-3.6c-1.3-1.3-2.9-3.6-2.9-5C95.1,288.9,95.8,287.9,96.9,288.5z"/>
	<polygon class="st11" points="190.3,297.1 187.5,306.5 200.8,315.4 192.8,332 166.7,313.2 163.1,295.2 159.5,293.6 135.1,292.7 
		119.4,306.3 106.5,292.3 122.8,277.3 143.1,275.2 	"/>
	<path class="st12" d="M186.9,232.5c-0.1-7.5-8.3-7.7-8.3-7.7c-6-0.5-8.7,6.1-4.9,10.9C180.9,244.5,187,238.4,186.9,232.5z"/>
	<path class="st8" d="M183.9,205.6c2.6,1.4,3.7,4.6,2.3,7.3c-1.4,2.6-4.6,3.7-7.3,2.3c-2.6-1.4-3.7-4.6-2.3-7.3
		C178,205.3,181.2,204.3,183.9,205.6z"/>
	<path class="st13" d="M184.1,209.9c1.1,0.5,1.5,1.8,0.9,2.9c-0.5,1.1-1.8,1.5-2.9,0.9c-1.1-0.5-1.5-1.8-0.9-2.9
		C181.8,209.8,183.1,209.4,184.1,209.9z"/>
	<circle class="st8" cx="191.5" cy="214.3" r="5.4"/>
	<circle class="st13" cx="193.2" cy="215.6" r="2.2"/>
	<path class="st9" d="M187.7,202.9c0,0-5.9-2.3-9.2-1.8C178.5,201.1,184.3,195.6,187.7,202.9z"/>
	<path class="st9" d="M202.2,213.3c0,0-3.9-5-7-6.2C195.3,207,203.1,205.3,202.2,213.3z"/>
</g>
<g>
	<path class="st8" d="M291.6,288.8c4.7-3.1,9.5-8.1,12.3-13.9c2.3-4.8,3-9.4,2.2-13.3c-0.8-3.9,3.9-4,4.7-0.5c1,4.7,0,10.2-2.6,15.8
		c-3.3,6.9-8.8,12.9-14.7,16.2C290.6,294.7,287.4,291.5,291.6,288.8z"/>
</g>
<g>
	<path class="st8" d="M285.3,278.7c3.6-1.9,7.3-5.2,9.5-9.2c1.9-3.3,2.6-6.5,2.2-9.2c-0.4-2.8,3-2.6,3.4-0.2
		c0.5,3.4-0.5,7.2-2.6,10.9c-2.7,4.7-7,8.6-11.4,10.7C284.3,282.7,282.1,280.4,285.3,278.7z"/>
</g>
<g>
	<path class="st8" d="M278.7,271.5c2.6-1.4,5.3-3.8,7-6.7c1.4-2.4,1.9-4.7,1.6-6.8c-0.3-2,2.2-1.9,2.5-0.1c0.4,2.5-0.3,5.3-1.9,8
		c-2,3.4-5.1,6.3-8.4,7.9C277.9,274.4,276.3,272.7,278.7,271.5z"/>
</g>
<path class="st8" d="M163.1,175.5c0,0-6.7-17.5-15.9-13.9c-4.9,1.9-3.1,8.4,1.6,8.2C152.6,169.7,158.3,169.8,163.1,175.5z"/>
<path class="st8" d="M152.9,193.4c0,0-15.7-10.1-21-1.8c-2.8,4.5,2.5,8.6,6.2,5.7C141,194.9,145.7,191.6,152.9,193.4z"/>
<path class="st8" d="M235.3,193.7c0,0,14.8-11.5,20.8-3.7c3.2,4.2-1.7,8.8-5.7,6.2C247.3,194.2,242.3,191.4,235.3,193.7z"/>
<path class="st8" d="M189.9,177c0,0,5-14.6-2.7-17.2c-4.2-1.4-6.4,3.7-3.3,6.1C186.4,167.8,189.9,170.9,189.9,177z"/>
<path class="st8" d="M222.5,182.4c0,0,5-13.1,11.9-10.4c3.7,1.4,2.3,6.3-1.2,6.2C230.4,178.1,226.1,178.2,222.5,182.4z"/>
</svg>
