<?xml version="1.0" encoding="utf-8"?>
<!-- Generator: Adobe Illustrator 19.0.0, SVG Export Plug-In . SVG Version: 6.00 Build 0)  -->
<svg version="1.1" id="Layer_1" xmlns="http://www.w3.org/2000/svg" xmlns:xlink="http://www.w3.org/1999/xlink" x="0px" y="0px"
	 viewBox="0 0 450 450" style="enable-background:new 0 0 450 450;" xml:space="preserve">
<style type="text/css">
	.st0{fill:#7A96CC;}
	.st1{fill:#CECED8;}
	.st2{fill:#F2C388;}
	.st3{fill:#FFFFFF;}
	.st4{fill:#A1D6D6;}
	.st5{fill:#090307;}
	.st6{fill:#A82F38;}
	.st7{fill:#C29E78;}
	.st8{fill:#3A2E16;}
	.st9{fill:#B28C6B;}
	.st10{opacity:0.75;fill:#CECED8;}
</style>
<g>
	<rect class="st0" width="450" height="450"/>
	<path class="st1" d="M414.5,227.3c-10.8-4.5-18.3-8-18.3-8c-6,8.1-16,15.7-26.8,22.3c-5.8-4.4-10.8-9.1-14.4-13.9
		c0,0-17.3,8.1-37.1,15.4c-27.6-5.3-71.1-25.5-71.1-25.5c-7.1,9.5-19.7,18.4-32.7,25.8c-14.1-7.7-28.2-17.3-35.8-27.5
		c0,0-29.5,13.8-55.3,21.5c-12.4-7.2-24.2-15.7-31-24.8c0,0-17.6,8.2-37.5,15.5c-21.6-7.7-41.9-17.1-41.9-17.1
		C9.4,215.4,5,219.6,0,223.6v117.3c17.9,10.3,29.1,14.4,35.8,16c3.7-3.8,12.6-12.3,27.3-22.5c6.9,5.6,11.4,10,13.8,12.4
		c8.3-2,23.6-7.9,50-24.6c34.2,23,52.9,30.5,62.4,32.8c3.2-3.3,10.3-10.2,21.9-18.7c1.4,0.4,2.7,0.8,3.8,1.1
		c1.6-1.6,4.2-4.2,7.7-7.3c19.5,11.5,31.5,15.9,38.5,17.6c3.8-3.9,13.3-13,29.1-23.8c13.7,7.3,22.7,10.6,28.4,12
		c3.4-3.4,11.1-10.9,23.7-20c33.4,22.4,51.8,29.7,61.2,31.9c3.9-4,13.6-13.3,29.8-24.3c6.1,3.9,11.6,7.2,16.5,10.1V212.7
		C445.2,214.9,430.6,221.4,414.5,227.3z"/>
</g>
<g>
	<g>
		<path class="st2" d="M171,193.9c-0.3-2,0.4-10.2,0.6-12.3c0,0-8.8-19.8-3.9,0.6c0,0-16.7-3.2-6.5,18.1l2.3,6.3l12-1.5
			C175.6,205,172.2,203.4,171,193.9z"/>
		<path class="st2" d="M314.1,186.1c5-20.4-3.9-0.6-3.9-0.6c0.2,2,0.8,10.3,0.6,12.3c-1.2,9.4-4.6,11.1-4.6,11.1l12,1.5l2.3-6.3
			C330.8,182.9,314.1,186.1,314.1,186.1z"/>
		<path class="st3" d="M172.1,192.2l-13.5,7.9c21.4,35.5,50.6,49.2,50.6,49.2l7.6-20.8C180.6,213.3,172.1,192.2,172.1,192.2z"/>
		<path class="st4" d="M164.4,77.6c-1.2,0-2.1,1.1-2.1,2.4v132.1c0,1.3,0.9,2.4,2.1,2.4c1.2,0,2.1-1.1,2.1-2.4V80
			C166.6,78.7,165.6,77.6,164.4,77.6z"/>
		<path class="st3" d="M260,224l18.4,16.4c0,0,16.8-3.6,43.6-35.3l-12.1-9.9C310,195.2,298.1,214.6,260,224z"/>
		<path class="st2" d="M207.8,139.1c-16.9,18.9-17.4,42.5-17.4,42.5l15.4,6.4l-0.5,30.3l73.1-4.9c0,0-0.4-25.6-6.3-57.4
			C266.3,124.3,224.7,120.3,207.8,139.1z"/>
		<path class="st5" d="M271.3,138.5c11.1-5.3,10.7-8.2-3.7-4.7c1.8-2.6,3.2-6.4,1.8-10.7c0,0-3.7,3.9-5.5,8.5
			c-0.4-0.2-0.8-0.4-1.2-0.7c-1.1-0.8-2.3-1.5-3.6-2.2c-30.3-17.4-54.4,0.8-59.8,9.9c0,0,5,9.7,49.5,9.3l5.8,30.4l5.2,0
			c-2.7-12,0.8-13.7,0.8-13.7s3.3-2.3,6.3,0.6c1.6,1.5,4.7,5,0.6,12.7c0,0,1.7,9.9,1.5,16l11.4,0.5c0,0,7.9-31.6-7.2-53.1
			C272.7,140.5,272,139.5,271.3,138.5z"/>
		<polygon class="st3" points="204.4,273.4 279.8,273.7 280.1,211.9 204.7,214.7 		"/>
		<polygon class="st6" points="232,214.8 236.2,229.6 230.6,255.2 239.5,269.7 247.6,255.3 243.7,230.1 247.8,214.9 		"/>
		<path class="st2" d="M158.5,181.6c-3.4,0.2-6.2,1.5-6.1,2.8c0.1,1.4,2.9,2.3,6.4,2.1c3.4-0.2,6.2-1.5,6.1-2.8
			C164.8,182.4,162,181.4,158.5,181.6z"/>
		<path class="st2" d="M158.2,186.4c-3.4,0.2-6.2,1.5-6.1,2.8c0.1,1.4,2.9,2.3,6.4,2.1c3.5-0.2,6.2-1.5,6.1-2.8
			C164.5,187.1,161.7,186.2,158.2,186.4z"/>
		<path class="st2" d="M159.3,190.9c-3.1,0.2-5.5,1.3-5.5,2.6c0.1,1.2,2.6,2.1,5.7,1.9c3.1-0.2,5.5-1.3,5.5-2.6
			C165,191.6,162.4,190.7,159.3,190.9z"/>
		<path class="st2" d="M159.7,194.8c-2.2,0.1-4,0.9-4,1.9c0.1,0.9,1.9,1.5,4.2,1.4c2.2-0.1,4-1,4-1.8
			C163.8,195.3,162,194.7,159.7,194.8z"/>
		<path class="st4" d="M317.4,81.5c-1.2,0-2.1,1.1-2.1,2.4V216c0,1.3,0.9,2.4,2.1,2.4c1.2,0,2.1-1.1,2.1-2.4V83.9
			C319.5,82.6,318.5,81.5,317.4,81.5z"/>
		<path class="st2" d="M323.3,185.5c-3.4-0.2-6.3,0.8-6.4,2.1c-0.1,1.4,2.7,2.6,6.1,2.8c3.4,0.2,6.3-0.8,6.4-2.1
			C329.5,186.9,326.7,185.7,323.3,185.5z"/>
		<path class="st2" d="M323.6,190.2c-3.4-0.2-6.3,0.8-6.4,2.1c-0.1,1.4,2.7,2.6,6.1,2.8c3.4,0.2,6.3-0.8,6.4-2.1
			C329.8,191.7,327.1,190.4,323.6,190.2z"/>
		<path class="st2" d="M322.5,194.7c-3.1-0.2-5.7,0.7-5.7,1.9c-0.1,1.2,2.4,2.4,5.5,2.6c3.1,0.2,5.7-0.7,5.7-1.9
			C328,196.1,325.6,194.9,322.5,194.7z"/>
		<path class="st2" d="M322.1,198.7c-2.2-0.1-4.1,0.5-4.2,1.4c0,0.9,1.7,1.7,4,1.8c2.2,0.1,4.1-0.5,4.1-1.4
			C326.1,199.6,324.3,198.8,322.1,198.7z"/>
		<rect x="147.7" y="37.4" class="st3" width="182.3" height="73.2"/>
		<g>
			<path class="st5" d="M204.6,159.8c3.8-3.1,13.1-4.6,13.1-4.6C207.9,148.5,204.6,159.8,204.6,159.8z"/>
			<path class="st5" d="M225,153.7c4.8-0.7,13.6,2.7,13.6,2.7C233.7,145.7,225,153.7,225,153.7z"/>
			<g>
				<path class="st7" d="M232.5,157.3c-5,0.4-8.7,4.8-8.4,9.8c0.4,5,4.8,8.7,9.8,8.4c5-0.4,8.8-4.8,8.4-9.8
					C241.9,160.6,237.5,156.9,232.5,157.3z"/>
				<path class="st3" d="M241.9,165.3l-17.4,2.1C224.5,167.4,232.2,181.9,241.9,165.3z"/>
				
					<rect x="232.5" y="157" transform="matrix(-0.1213 -0.9926 0.9926 -0.1213 96.8388 417.2716)" class="st8" width="1.2" height="17.5"/>
				<path class="st8" d="M230.6,166.8c0.2,1.5,1.5,2.5,2.9,2.3c1.4-0.2,2.5-1.5,2.3-2.9C235.6,164.7,230.4,165.3,230.6,166.8z"/>
				<path class="st7" d="M212.9,159.7c-5,0.4-8.8,4.8-8.4,9.8c0.4,5,4.8,8.7,9.8,8.4c5-0.4,8.8-4.8,8.4-9.8
					C222.3,163,217.9,159.3,212.9,159.7z"/>
				<path class="st3" d="M222.3,167.7l-17.4,2.1C204.9,169.8,212.6,184.3,222.3,167.7z"/>
				
					<rect x="212.9" y="159.4" transform="matrix(-0.1208 -0.9927 0.9927 -0.1208 72.4022 400.4639)" class="st8" width="1.2" height="17.5"/>
				<path class="st8" d="M210.9,169.2c0.2,1.4,1.5,2.5,2.9,2.3c1.5-0.2,2.5-1.5,2.3-2.9C216,167.1,210.7,167.8,210.9,169.2z"/>
			</g>
			<g>
				<path class="st9" d="M237.6,190.1c-2.2-1.4-6.1-1.7-9.3,0.9c-3.4,2.8-8.1,2.6-10.3,2.3c-0.7-0.1-1.1,1.8-0.4,1.9
					c2.3,0.3,7.5,0.6,11.4-2.6c2.8-2.2,6-2,7.8-0.8c0.5,0.3,0.7,0.7,0.9,1c0.7,1.2,2,0.1,1.9-0.4
					C239.2,191.5,238.4,190.6,237.6,190.1z"/>
			</g>
		</g>
	</g>
	<g>
		<path d="M176.2,54.2c0.4-0.1,0.9-0.1,1.3-0.2c0.5,0,0.9-0.1,1.4-0.1c0.5,0,0.9,0,1.4,0.1c0.5,0,0.9,0.1,1.3,0.2v15.5h16V54.2
			c0.4-0.1,0.8-0.1,1.3-0.2c0.5,0,0.9-0.1,1.4-0.1c0.5,0,0.9,0,1.4,0.1c0.5,0,0.9,0.1,1.3,0.2v37.6c-0.4,0.1-0.8,0.1-1.3,0.2
			c-0.5,0-0.9,0.1-1.4,0.1c-0.5,0-0.9,0-1.4-0.1c-0.5,0-0.9-0.1-1.3-0.2V74.4h-16v17.4c-0.4,0.1-0.8,0.1-1.3,0.2
			c-0.4,0-0.9,0.1-1.4,0.1c-0.5,0-0.9,0-1.4-0.1c-0.5,0-0.9-0.1-1.3-0.2V54.2z"/>
		<path d="M212.1,54.2h20.7c0.1,0.7,0.2,1.5,0.2,2.3c0,0.4,0,0.8,0,1.2c0,0.4-0.1,0.8-0.1,1.2h-15.3v10.8h12.2
			c0.1,0.3,0.1,0.7,0.2,1.1c0,0.4,0.1,0.8,0.1,1.2c0,0.4,0,0.8-0.1,1.2c0,0.4-0.1,0.8-0.2,1.2h-12.2v12.9h15.7
			c0.1,0.7,0.2,1.5,0.2,2.3c0,0.4,0,0.8,0,1.2c0,0.4-0.1,0.8-0.1,1.2h-21.1V54.2z"/>
		<path d="M240.1,54.2c0.4-0.1,0.8-0.1,1.2-0.2c0.4,0,0.9-0.1,1.4-0.1c0.5,0,0.9,0,1.4,0.1c0.5,0,0.9,0.1,1.3,0.2v32.9h14.8
			c0.1,0.4,0.1,0.8,0.1,1.2c0,0.4,0,0.8,0,1.2c0,0.8-0.1,1.6-0.2,2.4h-20V54.2z"/>
		<path d="M266,54.2c0.5-0.1,1.1-0.1,1.9-0.2c0.7-0.1,1.5-0.1,2.2-0.2c0.8-0.1,1.6-0.1,2.4-0.1c0.8,0,1.5-0.1,2.3-0.1
			c1.9,0,3.7,0.2,5.5,0.6c1.7,0.4,3.2,1,4.6,2c1.3,0.9,2.3,2.2,3.1,3.7c0.8,1.6,1.2,3.5,1.2,5.8c0,2.4-0.4,4.5-1.2,6.1
			c-0.8,1.6-1.9,2.9-3.2,3.9c-1.3,1-2.9,1.7-4.6,2.1c-1.7,0.4-3.5,0.6-5.2,0.6c-0.7,0-1.2,0-1.8,0c-0.5,0-1.1-0.1-1.6-0.1v13.6
			c-0.8,0.1-1.7,0.2-2.7,0.2c-0.4,0-0.9,0-1.3,0c-0.5,0-0.9-0.1-1.3-0.1V54.2z M271.3,73.6c0.6,0.1,1,0.1,1.5,0.2
			c0.4,0,1,0.1,1.8,0.1c1.1,0,2.2-0.1,3.2-0.3c1.1-0.2,2-0.6,2.9-1.2c0.8-0.6,1.5-1.4,2-2.4c0.5-1,0.8-2.4,0.8-4
			c0-1.4-0.2-2.6-0.7-3.6c-0.4-1-1-1.8-1.8-2.4c-0.8-0.6-1.7-1-2.8-1.3c-1.1-0.2-2.2-0.4-3.5-0.4c-1.3,0-2.4,0.1-3.4,0.2V73.6z"/>
		<path d="M295.7,91.8c-0.1-0.5-0.1-1-0.2-1.4c0-0.5-0.1-0.9-0.1-1.4c0-0.5,0-1,0.1-1.5c0-0.5,0.1-1,0.2-1.5c0.5-0.1,1-0.1,1.4-0.2
			c0.5,0,1-0.1,1.4-0.1c0.5,0,1,0,1.5,0.1c0.5,0,1,0.1,1.5,0.2c0.1,0.5,0.1,1,0.2,1.5c0,0.5,0.1,1,0.1,1.5c0,0.5,0,1-0.1,1.5
			c0,0.5-0.1,1-0.2,1.5c-0.5,0.1-1,0.1-1.5,0.2c-0.5,0-1,0.1-1.5,0.1c-0.5,0-1,0-1.5-0.1C296.6,92,296.1,91.9,295.7,91.8z
			 M295.9,54.2c0.5-0.1,0.9-0.1,1.3-0.2c0.4,0,0.9-0.1,1.3-0.1c0.5,0,1,0,1.5,0.1c0.5,0,1,0.1,1.5,0.2l-0.3,26.3
			c-0.8,0.1-1.6,0.2-2.5,0.2c-0.9,0-1.8-0.1-2.5-0.2L295.9,54.2z"/>
	</g>
</g>
<g>
	<g>
		<path class="st10" d="M81.9,331c0,0-58.2-21-77-46.3c0,0-1.8,0.8-4.8,2.2v71.3c13.5,7.2,22.4,10.4,28,11.7
			C33.5,364.2,50.8,347.8,81.9,331z"/>
		<g>
			<g>
				<path class="st3" d="M80.5,328.3c0,0-58.2-21-77-46.3c0,0-1.3,0.6-3.5,1.6v72.6c12.7,6.7,21.2,9.7,26.7,11
					C32.2,361.5,49.5,345.2,80.5,328.3z"/>
			</g>
			<g>
				<path class="st1" d="M4,297.6c0,0-1.3,1-4,2.7v2.2c2.1-1.2,4.3-2.5,6.6-3.9L4,297.6z"/>
			</g>
			<g>
				<path class="st1" d="M14,304.4c0,0-4.7,3.6-14,8.2v1.9c5.1-2.5,10.7-5.5,16.6-9.2L14,304.4z"/>
			</g>
			<g>
				<path class="st1" d="M24,311.3c0,0-8,6.2-24,12.8v1.9c7.4-3.1,16.6-7.6,26.7-13.8L24,311.3z"/>
			</g>
			<g>
				<path class="st1" d="M34.1,318.2c0,0-11.1,8.6-34.1,17.6v2.4c7.8-2.8,20.9-8.4,36.7-19L34.1,318.2z"/>
			</g>
			<g>
				<path class="st1" d="M4.2,348.4l2.4,1c0.3,0,18-6.7,40.1-23.3l-2.6-1C44.1,325.1,33.3,335.3,4.2,348.4z"/>
			</g>
		</g>
	</g>
	<g>
		<path class="st10" d="M155,248.1c0,0-49.1,21.4-76.3,24.4c57,45.5,84.9,58.1,97.3,61.4c5.6-5.5,23.3-21.4,54.8-37.5
			C230.8,296.3,173.1,273.9,155,248.1z"/>
		<g>
			<g>
				<path class="st3" d="M153.7,245.4c0,0-49.1,21.4-76.3,24.4c57,45.5,84.9,58.1,97.3,61.4c5.6-5.5,23.3-21.4,54.8-37.5
					C229.5,293.6,171.8,271.2,153.7,245.4z"/>
			</g>
			<g>
				<path class="st1" d="M107.2,280.1l2.3,1.1c0.3,0,20.2-3.7,46.8-19.2l-2.6-1C153.7,261,138.2,272.3,107.2,280.1z"/>
			</g>
			<g>
				<path class="st1" d="M117.1,287.2l2.3,1.1c0.3,0,20.2-3.7,46.8-19.2l-2.6-1C163.6,268.1,148.1,279.5,117.1,287.2z"/>
			</g>
			<g>
				<path class="st1" d="M126.9,294.4l2.3,1.1c0.3,0,20.2-3.7,46.8-19.2l-2.6-1C173.5,275.2,157.9,286.6,126.9,294.4z"/>
			</g>
			<g>
				<path class="st1" d="M138.6,302.5l2.3,1.1c0.3,0,19-3.7,44.9-20.2l-2.6-1C183.3,282.3,168.8,293.1,138.6,302.5z"/>
			</g>
			<g>
				<path class="st1" d="M152.7,311.7l2.3,1.1c0.3,0,18.2-6.2,40.7-22.3l-2.6-1C193.2,289.5,182.2,299.4,152.7,311.7z"/>
			</g>
		</g>
	</g>
	<g>
		<path class="st10" d="M304,255.5c0,0-48.5,22.6-75.6,26.3c58.1,44,86.4,55.9,98.8,58.9c5.5-5.6,22.8-22,53.9-38.9
			C381,301.8,322.8,280.9,304,255.5z"/>
		<g>
			<g>
				<path class="st3" d="M302.7,252.9c0,0-48.5,22.6-75.6,26.3c58.1,44,86.4,55.9,98.8,58.9c5.5-5.6,22.8-22,53.9-38.9
					C379.7,299.2,321.5,278.2,302.7,252.9z"/>
			</g>
			<g>
				<path class="st1" d="M257.1,288.8l2.4,1c0.3,0,20.1-4.3,46.3-20.4l-2.6-1C303.1,268.5,287.9,280.2,257.1,288.8z"/>
			</g>
			<g>
				<path class="st1" d="M267.1,295.7l2.4,1c0.3,0,20.1-4.3,46.3-20.4l-2.6-1C313.1,275.3,297.9,287.1,267.1,295.7z"/>
			</g>
			<g>
				<path class="st1" d="M277.2,302.5l2.4,1c0.3,0,20.1-4.3,46.3-20.4l-2.6-1C323.2,282.2,307.9,294,277.2,302.5z"/>
			</g>
			<g>
				<path class="st1" d="M289.1,310.4l2.4,1c0.3,0,18.9-4.2,44.4-21.3l-2.6-1C333.2,289.1,318.9,300.2,289.1,310.4z"/>
			</g>
			<g>
				<path class="st1" d="M303.4,319.3l2.4,1c0.3,0,18-6.7,40.1-23.3l-2.6-1C343.3,295.9,332.5,306.2,303.4,319.3z"/>
			</g>
		</g>
	</g>
	<g>
		<path class="st10" d="M201.2,386.1c31.1,16.9,48.4,33.2,53.9,38.9c12.5-3,40.7-14.9,98.8-58.9c-27.1-3.7-75.6-26.3-75.6-26.3
			C259.4,365.1,201.2,386.1,201.2,386.1z"/>
		<g>
			<g>
				<path class="st3" d="M202.5,383.4c31.1,16.9,48.4,33.2,53.9,38.9c12.5-3,40.7-14.9,98.8-58.9c-27.1-3.7-75.6-26.3-75.6-26.3
					C260.8,362.5,202.5,383.4,202.5,383.4z"/>
			</g>
			<g>
				<path class="st1" d="M276.5,353.7c26.1,16.1,46,20.4,46.3,20.4l2.4-1c-30.8-8.6-46-20.3-46-20.3L276.5,353.7z"/>
			</g>
			<g>
				<path class="st1" d="M266.5,360.6c26.1,16.1,46,20.4,46.3,20.4l2.4-1c-30.8-8.6-46-20.3-46-20.3L266.5,360.6z"/>
			</g>
			<g>
				<path class="st1" d="M256.4,367.4c26.1,16.1,46,20.4,46.3,20.4l2.4-1c-30.8-8.6-46-20.3-46-20.3L256.4,367.4z"/>
			</g>
			<g>
				<path class="st1" d="M246.4,374.3c25.5,17.2,44.1,21.3,44.4,21.3l2.4-1c-29.9-10.2-44.2-21.3-44.2-21.3L246.4,374.3z"/>
			</g>
			<g>
				<path class="st1" d="M236.3,381.2c22.2,16.6,39.9,23.3,40.1,23.3l2.4-1c-29.1-13.1-39.9-23.3-39.9-23.3L236.3,381.2z"/>
			</g>
		</g>
	</g>
	<g>
		<path class="st10" d="M438.9,333.1c0,0-48.5,22.6-75.6,26.3c44,33.3,70.8,48.2,86.7,54.8v-69.8C445.6,340.8,441.8,337,438.9,333.1
			z"/>
		<g>
			<g>
				<path class="st3" d="M437.6,330.4c0,0-48.5,22.6-75.6,26.3c45.2,34.3,72.4,49.1,88,55.3v-69.3
					C445.1,338.8,440.8,334.7,437.6,330.4z"/>
			</g>
			<g>
				<path class="st1" d="M392,366.3l2.4,1c0.3,0,20.1-4.3,46.3-20.4l-2.6-1C438.1,346,422.8,357.8,392,366.3z"/>
			</g>
			<g>
				<path class="st1" d="M402.1,373.2l2.4,1c0.3,0,19.8-4.2,45.6-19.9v-0.7l-1.9-0.7C448.1,352.9,432.8,364.7,402.1,373.2z"/>
			</g>
			<g>
				<path class="st1" d="M414.5,381.1c0.2,0,14.9-3.1,35.5-14.2v-2c-7.5,4.2-20.1,10.2-37.9,15.2L414.5,381.1z"/>
			</g>
			<g>
				<path class="st1" d="M426.4,388.9c0.2,0,9.4-2,23.6-9.2v-2.5c-6.7,3.3-15.4,7.1-26,10.7L426.4,388.9z"/>
			</g>
			<g>
				<path class="st1" d="M440.7,397.8c0.1,0,3.6-1.3,9.3-4.1v-2.4c-3.5,1.8-7.4,3.6-11.7,5.6L440.7,397.8z"/>
			</g>
		</g>
	</g>
	<g>
		<path class="st10" d="M66.9,399.3C53,418.1,17.5,434.4,0,441.7v8.3h108.8c9.9-6.8,21.2-14.8,33.8-24.4
			C115.4,422,66.9,399.3,66.9,399.3z"/>
		<g>
			<g>
				<path class="st3" d="M68.2,396.7C54,415.9,17,432.6,0,439.5v8.4c1.2,0.7,2.3,1.4,3.4,2h102.7c10.9-7.3,23.4-16.2,37.7-27
					C116.8,419.3,68.2,396.7,68.2,396.7z"/>
			</g>
			<g>
				<path class="st1" d="M65.2,413.2c26.1,16.1,46,20.4,46.3,20.4l2.4-1c-30.8-8.6-46-20.3-46-20.3L65.2,413.2z"/>
			</g>
			<g>
				<path class="st1" d="M55.1,420.1c26.1,16.1,46,20.4,46.3,20.4l2.4-1c-30.8-8.6-46-20.3-46-20.3L55.1,420.1z"/>
			</g>
			<g>
				<path class="st1" d="M45.1,427c26.1,16.1,46,20.4,46.3,20.4l2.4-1c-30.8-8.6-46-20.3-46-20.3L45.1,427z"/>
			</g>
			<g>
				<path class="st1" d="M35.1,433.8c11.6,7.8,21.7,12.9,29.4,16.2h6c-22.1-8.8-32.8-17.1-32.8-17.1L35.1,433.8z"/>
			</g>
			<g>
				<path class="st1" d="M25,440.7c4.7,3.5,9.2,6.6,13.4,9.3h3.8c-10.3-6.2-14.6-10.3-14.6-10.3L25,440.7z"/>
			</g>
		</g>
	</g>
	<g>
		<path class="st10" d="M128.6,388.2c31.1,16.9,48.4,33.2,53.9,38.9c12.5-3,40.7-14.9,98.8-58.9c-27.1-3.7-75.6-26.3-75.6-26.3
			C186.8,367.3,128.6,388.2,128.6,388.2z"/>
		<g>
			<g>
				<path class="st3" d="M129.9,385.6c31.1,16.9,48.4,33.2,53.9,38.9c12.5-3,40.7-14.9,98.8-58.9c-27.1-3.7-75.6-26.3-75.6-26.3
					C188.2,364.6,129.9,385.6,129.9,385.6z"/>
			</g>
			<g>
				<path class="st1" d="M203.9,355.8c26.1,16.1,46,20.4,46.3,20.4l2.4-1c-30.8-8.6-46-20.3-46-20.3L203.9,355.8z"/>
			</g>
			<g>
				<path class="st1" d="M193.8,362.7c26.1,16.1,46,20.4,46.3,20.4l2.4-1c-30.8-8.6-46-20.3-46-20.3L193.8,362.7z"/>
			</g>
			<g>
				<path class="st1" d="M183.8,369.6c26.1,16.1,46,20.4,46.3,20.4l2.4-1c-30.8-8.6-46-20.3-46-20.3L183.8,369.6z"/>
			</g>
			<g>
				<path class="st1" d="M173.8,376.4c25.5,17.2,44.1,21.3,44.4,21.3l2.4-1c-29.9-10.2-44.1-21.3-44.1-21.3L173.8,376.4z"/>
			</g>
			<g>
				<path class="st1" d="M163.7,383.3c22.2,16.6,39.9,23.3,40.1,23.3l2.4-1c-29.1-13.1-39.9-23.3-39.9-23.3L163.7,383.3z"/>
			</g>
		</g>
	</g>
	<g>
		<path class="st10" d="M261.3,311.4c31.1,16.9,48.4,33.2,53.9,38.9c12.5-3,40.7-14.9,98.8-58.9c-27.1-3.7-75.6-26.3-75.6-26.3
			C319.5,290.4,261.3,311.4,261.3,311.4z"/>
		<g>
			<g>
				<path class="st3" d="M262.6,308.7c31.1,16.9,48.4,33.2,53.9,38.9c12.5-3,40.7-14.9,98.8-58.9c-27.1-3.7-75.6-26.3-75.6-26.3
					C320.8,287.7,262.6,308.7,262.6,308.7z"/>
			</g>
			<g>
				<path class="st1" d="M336.6,279c26.1,16.1,46,20.4,46.3,20.4l2.4-1c-30.8-8.6-46-20.3-46-20.3L336.6,279z"/>
			</g>
			<g>
				<path class="st1" d="M326.5,285.8c26.1,16.1,46,20.4,46.3,20.4l2.4-1c-30.8-8.6-46-20.3-46-20.3L326.5,285.8z"/>
			</g>
			<g>
				<path class="st1" d="M316.5,292.7c26.1,16.1,46,20.4,46.3,20.4l2.4-1c-30.8-8.6-46-20.3-46-20.3L316.5,292.7z"/>
			</g>
			<g>
				<path class="st1" d="M306.4,299.6c25.5,17.2,44.1,21.3,44.4,21.3l2.4-1c-29.9-10.2-44.1-21.3-44.1-21.3L306.4,299.6z"/>
			</g>
			<g>
				<path class="st1" d="M296.4,306.5c22.2,16.6,39.9,23.3,40.1,23.3l2.4-1c-29.1-13.1-39.9-23.3-39.9-23.3L296.4,306.5z"/>
			</g>
		</g>
	</g>
	<g>
		<g>
			<path class="st10" d="M0.9,299.8c31.1,16.9,48.4,33.2,53.9,38.9c12.5-3,40.7-14.9,98.8-58.9c-27.1-3.7-75.6-26.3-75.6-26.3
				C59.1,278.8,0.9,299.8,0.9,299.8z"/>
			<g>
				<g>
					<path class="st3" d="M2.2,297.2C33.3,314,50.6,330.4,56.1,336c12.5-3,40.7-14.9,98.8-58.9c-27.1-3.7-75.6-26.3-75.6-26.3
						C60.4,276.2,2.2,297.2,2.2,297.2z"/>
				</g>
				<g>
					<path class="st1" d="M76.2,267.4c26.1,16.1,46,20.4,46.3,20.4l2.4-1c-30.8-8.6-46-20.3-46-20.3L76.2,267.4z"/>
				</g>
				<g>
					<path class="st1" d="M66.1,274.3c26.1,16.1,46,20.4,46.3,20.4l2.4-1c-30.8-8.6-46-20.3-46-20.3L66.1,274.3z"/>
				</g>
				<g>
					<path class="st1" d="M56.1,281.1c26.1,16.1,46,20.4,46.3,20.4l2.4-1c-30.8-8.6-46-20.3-46-20.3L56.1,281.1z"/>
				</g>
				<g>
					<path class="st1" d="M46.1,288c25.5,17.2,44.1,21.3,44.4,21.3l2.4-1C63,298.2,48.7,287,48.7,287L46.1,288z"/>
				</g>
				<g>
					<path class="st1" d="M36,294.9c22.2,16.6,39.9,23.3,40.1,23.3l2.4-1c-29.1-13.1-39.9-23.3-39.9-23.3L36,294.9z"/>
				</g>
			</g>
		</g>
		<g>
			<path class="st10" d="M139.7,364.3c31.1,16.9,48.4,33.2,53.9,38.9c12.5-3,40.7-14.9,98.8-58.9c-27.1-3.7-75.6-26.3-75.6-26.3
				C197.9,343.3,139.7,364.3,139.7,364.3z"/>
			<g>
				<g>
					<path class="st3" d="M141,361.6c31.1,16.9,48.4,33.2,53.9,38.9c12.5-3,40.7-14.9,98.8-58.9c-27.1-3.7-75.6-26.3-75.6-26.3
						C199.2,340.6,141,361.6,141,361.6z"/>
				</g>
				<g>
					<path class="st1" d="M215,331.9c26.1,16.1,46,20.4,46.3,20.4l2.4-1c-30.8-8.6-46-20.3-46-20.3L215,331.9z"/>
				</g>
				<g>
					<path class="st1" d="M204.9,338.7c26.1,16.1,46,20.4,46.3,20.4l2.4-1c-30.8-8.6-46-20.3-46-20.3L204.9,338.7z"/>
				</g>
				<g>
					<path class="st1" d="M194.9,345.6c26.1,16.1,46,20.4,46.3,20.4l2.4-1c-30.8-8.6-46-20.3-46-20.3L194.9,345.6z"/>
				</g>
				<g>
					<path class="st1" d="M184.9,352.5c25.5,17.2,44.1,21.3,44.4,21.3l2.4-1c-29.9-10.2-44.2-21.3-44.2-21.3L184.9,352.5z"/>
				</g>
				<g>
					<path class="st1" d="M174.8,359.3c22.2,16.6,39.9,23.3,40.1,23.3l2.4-1c-29.1-13.1-39.9-23.3-39.9-23.3L174.8,359.3z"/>
				</g>
			</g>
		</g>
		<g>
			<path class="st10" d="M362.2,368.2c-18.8,25.3-77,46.3-77,46.3c26.2,14.2,42.6,28.1,50.4,35.5h13.9c15.6-6.2,42.8-21,88.4-55.5
				C410.8,390.9,362.2,368.2,362.2,368.2z"/>
			<g>
				<g>
					<path class="st3" d="M363.5,365.6c-18.8,25.3-77,46.3-77,46.3c29.8,16.2,46.9,31.9,53.1,38.1h3.6c13.7-4,41.9-17.1,96-58.1
						C412.1,388.2,363.5,365.6,363.5,365.6z"/>
				</g>
				<g>
					<path class="st1" d="M360.5,382.1c26.1,16.1,46,20.4,46.3,20.4l2.4-1c-30.8-8.6-46-20.3-46-20.3L360.5,382.1z"/>
				</g>
				<g>
					<path class="st1" d="M350.4,389c26.1,16.1,46,20.4,46.3,20.4l2.4-1c-30.8-8.6-46-20.3-46-20.3L350.4,389z"/>
				</g>
				<g>
					<path class="st1" d="M340.4,395.9c26.1,16.1,46,20.4,46.3,20.4l2.4-1c-30.8-8.6-46-20.3-46-20.3L340.4,395.9z"/>
				</g>
				<g>
					<path class="st1" d="M330.4,402.7c25.5,17.2,44.1,21.3,44.4,21.3l2.4-1c-29.9-10.2-44.1-21.3-44.1-21.3L330.4,402.7z"/>
				</g>
				<g>
					<path class="st1" d="M320.3,409.6c22.2,16.6,39.9,23.3,40.1,23.3l2.4-1c-29.1-13.1-39.9-23.3-39.9-23.3L320.3,409.6z"/>
				</g>
			</g>
		</g>
	</g>
	<g>
		<path class="st10" d="M49.7,421.7c12.5-3,40.7-14.9,98.8-58.9c-27.1-3.7-75.6-26.3-75.6-26.3C57.1,357.8,13.6,376,0,381.3v3.9
			C28.5,401.2,44.5,416.3,49.7,421.7z"/>
		<g>
			<g>
				<path class="st3" d="M51,419.1c12.5-3,40.7-14.9,98.8-58.9c-27.1-3.7-75.6-26.3-75.6-26.3c-16.3,22-62.4,40.7-74.2,45.2v2.6
					C29.3,398,45.7,413.6,51,419.1z"/>
			</g>
			<g>
				<path class="st1" d="M71.2,350.4c26.1,16.1,46,20.4,46.3,20.4l2.4-1c-30.8-8.6-46-20.3-46-20.3L71.2,350.4z"/>
			</g>
			<g>
				<path class="st1" d="M61.1,357.3c26.1,16.1,46,20.4,46.3,20.4l2.4-1c-30.8-8.6-46-20.3-46-20.3L61.1,357.3z"/>
			</g>
			<g>
				<path class="st1" d="M51.1,364.2c26.1,16.1,46,20.4,46.3,20.4l2.4-1c-30.8-8.6-46-20.3-46-20.3L51.1,364.2z"/>
			</g>
			<g>
				<path class="st1" d="M41.1,371c25.5,17.2,44.1,21.3,44.4,21.3l2.4-1c-29.9-10.2-44.1-21.3-44.1-21.3L41.1,371z"/>
			</g>
			<g>
				<path class="st1" d="M31,377.9c22.2,16.6,39.9,23.3,40.1,23.3l2.4-1c-29.1-13.1-39.9-23.3-39.9-23.3L31,377.9z"/>
			</g>
		</g>
	</g>
	<g>
		<path class="st10" d="M126.7,301.2c31.1,16.9,48.4,33.2,53.9,38.9c12.5-3,40.7-14.9,98.8-58.9c-27.1-3.7-75.6-26.3-75.6-26.3
			C184.9,280.2,126.7,301.2,126.7,301.2z"/>
		<g>
			<g>
				<path class="st3" d="M128,298.5c31.1,16.9,48.4,33.2,53.9,38.9c12.5-3,40.7-14.9,98.8-58.9c-27.1-3.7-75.6-26.3-75.6-26.3
					C186.2,277.5,128,298.5,128,298.5z"/>
			</g>
			<g>
				<path class="st1" d="M202,268.7c26.1,16.1,46,20.4,46.3,20.4l2.4-1c-30.8-8.6-46-20.3-46-20.3L202,268.7z"/>
			</g>
			<g>
				<path class="st1" d="M191.9,275.6c26.1,16.1,46,20.4,46.3,20.4l2.4-1c-30.8-8.6-46-20.3-46-20.3L191.9,275.6z"/>
			</g>
			<g>
				<path class="st1" d="M181.9,282.5c26.1,16.1,46,20.4,46.3,20.4l2.4-1c-30.8-8.6-46-20.3-46-20.3L181.9,282.5z"/>
			</g>
			<g>
				<path class="st1" d="M171.8,289.4c25.5,17.2,44.1,21.3,44.4,21.3l2.4-1c-29.9-10.2-44.1-21.3-44.1-21.3L171.8,289.4z"/>
			</g>
			<g>
				<path class="st1" d="M161.8,296.2c22.2,16.6,39.9,23.3,40.1,23.3l2.4-1c-29.1-13.1-39.9-23.3-39.9-23.3L161.8,296.2z"/>
			</g>
		</g>
	</g>
	<g>
		<g>
			<path class="st10" d="M191.8,450h105.8c-27.5-4.7-73-25.9-73-25.9C217.5,433.7,204.8,442.6,191.8,450z"/>
			<g>
				<g>
					<path class="st3" d="M225.9,421.5c-8,10.7-23,20.6-37.6,28.5h110.3c1-0.8,2-1.5,3-2.3C274.5,444.1,225.9,421.5,225.9,421.5z"/>
				</g>
				<g>
					<path class="st1" d="M222.9,438c8.3,5.1,16,9,22.6,12h4.5c-16.3-6.7-24.4-13-24.4-13L222.9,438z"/>
				</g>
				<g>
					<path class="st1" d="M212.8,444.9c3,1.9,6,3.6,8.8,5.1h3.7c-6.6-3.6-9.9-6.1-9.9-6.1L212.8,444.9z"/>
				</g>
			</g>
		</g>
		<g>
			<path class="st10" d="M369.2,377c-18.8,25.3-77,46.3-77,46.3c17.9,9.7,31.2,19.3,40.3,26.7h42.4c16.2-8.7,38.7-23.1,70-46.7
				C417.8,399.6,369.2,377,369.2,377z"/>
			<g>
				<g>
					<path class="st3" d="M370.6,374.3c-18.8,25.3-77,46.3-77,46.3c20.1,10.9,34.5,21.6,43.6,29.4h34.1c16.4-8.3,40.4-23.1,75-49.4
						C419.1,397,370.6,374.3,370.6,374.3z"/>
				</g>
				<g>
					<path class="st1" d="M367.5,390.9c26.1,16.1,46,20.4,46.3,20.4l2.4-1c-30.8-8.6-46-20.3-46-20.3L367.5,390.9z"/>
				</g>
				<g>
					<path class="st1" d="M357.5,397.8c26.1,16.1,46,20.4,46.3,20.4l2.4-1c-30.8-8.6-46-20.3-46-20.3L357.5,397.8z"/>
				</g>
				<g>
					<path class="st1" d="M347.4,404.6c26.1,16.1,46,20.4,46.3,20.4l2.4-1c-30.8-8.6-46-20.3-46-20.3L347.4,404.6z"/>
				</g>
				<g>
					<path class="st1" d="M337.4,411.5c25.5,17.2,44.1,21.3,44.4,21.3l2.4-1c-29.9-10.2-44.2-21.3-44.2-21.3L337.4,411.5z"/>
				</g>
				<g>
					<path class="st1" d="M327.3,418.4c22.2,16.6,39.9,23.3,40.1,23.3l2.4-1c-29.1-13.1-39.9-23.3-39.9-23.3L327.3,418.4z"/>
				</g>
			</g>
		</g>
	</g>
	<g>
		<path class="st10" d="M167.1,412.3c-11.5,15.5-37.6,29.3-56.3,37.7h116.5c4.9-3.5,10-7.4,15.4-11.4
			C215.6,434.9,167.1,412.3,167.1,412.3z"/>
		<g>
			<g>
				<path class="st3" d="M168.4,409.6c-12.8,17.2-43.8,32.4-62.3,40.4h118.9c6-4.3,12.3-9,19.1-14.1
					C216.9,432.2,168.4,409.6,168.4,409.6z"/>
			</g>
			<g>
				<path class="st1" d="M165.3,426.2c26.1,16.1,46,20.4,46.3,20.4l2.4-1c-30.8-8.6-46-20.3-46-20.3L165.3,426.2z"/>
			</g>
			<g>
				<path class="st1" d="M155.3,433c14.2,8.8,26.6,14,34.9,17h5.8c-25.4-8.2-38.1-17.9-38.1-17.9L155.3,433z"/>
			</g>
			<g>
				<path class="st1" d="M145.3,439.9c6.6,4.1,12.9,7.4,18.5,10.1h4.1c-13.4-5.9-20-11.1-20-11.1L145.3,439.9z"/>
			</g>
			<g>
				<path class="st1" d="M135.2,446.8c1.7,1.1,3.3,2.2,4.9,3.2h4c-4.2-2.6-6.3-4.2-6.3-4.2L135.2,446.8z"/>
			</g>
		</g>
	</g>
	<g>
		<path class="st10" d="M29.3,396.2c12.5-3,40.7-14.9,98.8-58.9c-27.1-3.7-75.6-26.3-75.6-26.3C41.7,325.5,18.2,338.5,0,347v25.3
			C15.9,383.2,25.5,392.3,29.3,396.2z"/>
		<g>
			<g>
				<path class="st3" d="M30.6,393.6c12.5-3,40.7-14.9,98.8-58.9c-27.1-3.7-75.6-26.3-75.6-26.3C42.8,323.2,18.4,336.5,0,345v23.8
					C16.7,380,26.7,389.5,30.6,393.6z"/>
			</g>
			<g>
				<path class="st1" d="M50.7,324.9c26.1,16.1,46,20.4,46.3,20.4l2.4-1c-30.8-8.6-46-20.3-46-20.3L50.7,324.9z"/>
			</g>
			<g>
				<path class="st1" d="M40.7,331.8c26.1,16.1,46,20.4,46.3,20.4l2.4-1c-30.8-8.6-46-20.3-46-20.3L40.7,331.8z"/>
			</g>
			<g>
				<path class="st1" d="M30.6,338.7c26.1,16.1,46,20.4,46.3,20.4l2.4-1c-30.8-8.6-46-20.3-46-20.3L30.6,338.7z"/>
			</g>
			<g>
				<path class="st1" d="M20.6,345.6c25.5,17.2,44.1,21.3,44.4,21.3l2.4-1c-29.9-10.2-44.2-21.3-44.2-21.3L20.6,345.6z"/>
			</g>
			<g>
				<path class="st1" d="M10.6,352.4c22.2,16.6,39.9,23.3,40.1,23.3l2.4-1c-29.1-13.1-39.9-23.3-39.9-23.3L10.6,352.4z"/>
			</g>
		</g>
	</g>
	<g>
		<path class="st10" d="M246,394.8c31.1,16.9,48.4,33.2,53.9,38.9c12.5-3,40.7-14.9,98.8-58.9c-27.1-3.7-75.6-26.3-75.6-26.3
			C304.2,373.8,246,394.8,246,394.8z"/>
		<g>
			<g>
				<path class="st3" d="M247.3,392.1c31.1,16.9,48.4,33.2,53.9,38.9c12.5-3,40.7-14.9,98.8-58.9c-27.1-3.7-75.6-26.3-75.6-26.3
					C305.5,371.1,247.3,392.1,247.3,392.1z"/>
			</g>
			<g>
				<path class="st1" d="M321.3,362.3c26.1,16.1,46,20.4,46.3,20.4l2.4-1c-30.8-8.6-46-20.3-46-20.3L321.3,362.3z"/>
			</g>
			<g>
				<path class="st1" d="M311.2,369.2c26.1,16.1,46,20.4,46.3,20.4l2.4-1c-30.8-8.6-46-20.3-46-20.3L311.2,369.2z"/>
			</g>
			<g>
				<path class="st1" d="M301.2,376.1c26.1,16.1,46,20.4,46.3,20.4l2.4-1c-30.8-8.6-46-20.3-46-20.3L301.2,376.1z"/>
			</g>
			<g>
				<path class="st1" d="M291.2,383c25.5,17.2,44.1,21.3,44.4,21.3l2.4-1c-29.9-10.2-44.1-21.3-44.1-21.3L291.2,383z"/>
			</g>
			<g>
				<path class="st1" d="M281.1,389.8c22.2,16.6,39.9,23.3,40.1,23.3l2.4-1c-29.1-13.1-39.9-23.3-39.9-23.3L281.1,389.8z"/>
			</g>
		</g>
	</g>
	<g>
		<path class="st10" d="M69.3,400.2c31.1,16.9,48.4,33.2,53.9,38.9c12.5-3,40.7-14.9,98.8-58.9c-27.1-3.7-75.6-26.3-75.6-26.3
			C127.5,379.2,69.3,400.2,69.3,400.2z"/>
		<g>
			<g>
				<path class="st3" d="M70.6,397.5c31.1,16.9,48.4,33.2,53.9,38.9c12.5-3,40.7-14.9,98.8-58.9c-27.1-3.7-75.6-26.3-75.6-26.3
					C128.8,376.6,70.6,397.5,70.6,397.5z"/>
			</g>
			<g>
				<path class="st1" d="M144.6,367.8c26.1,16.1,46,20.4,46.3,20.4l2.4-1c-30.8-8.6-46-20.3-46-20.3L144.6,367.8z"/>
			</g>
			<g>
				<path class="st1" d="M134.5,374.7c26.1,16.1,46,20.4,46.3,20.4l2.4-1c-30.8-8.6-46-20.3-46-20.3L134.5,374.7z"/>
			</g>
			<g>
				<path class="st1" d="M124.5,381.5c26.1,16.1,46,20.4,46.3,20.4l2.4-1c-30.8-8.6-46-20.3-46-20.3L124.5,381.5z"/>
			</g>
			<g>
				<path class="st1" d="M114.4,388.4c25.5,17.2,44.1,21.3,44.4,21.3l2.4-1c-29.9-10.2-44.2-21.3-44.2-21.3L114.4,388.4z"/>
			</g>
			<g>
				<path class="st1" d="M104.4,395.3c22.2,16.6,39.9,23.3,40.1,23.3l2.4-1c-29.1-13.1-39.9-23.3-39.9-23.3L104.4,395.3z"/>
			</g>
		</g>
	</g>
	<g>
		<path class="st10" d="M0,368.1V437c16-8.8,38.2-23,68.4-45.9C47.7,388.4,14.5,374.5,0,368.1z"/>
		<g>
			<g>
				<path class="st3" d="M0,364.9v70.2c16.1-8.7,38.7-23.1,69.8-46.6C48.4,385.6,13.7,371,0,364.9z"/>
			</g>
			<g>
				<path class="st1" d="M39.7,398.1c-19.3-5.4-32.6-12-39.7-16.2v2.1c21.6,11.8,37.1,15.2,37.3,15.1L39.7,398.1z"/>
			</g>
			<g>
				<path class="st1" d="M29.7,405c-12.4-3.4-22.3-7.4-29.7-10.9v1.9c16.2,7.7,27.1,10,27.3,10L29.7,405z"/>
			</g>
			<g>
				<path class="st1" d="M19.6,411.9c-7.5-2.1-14-4.3-19.6-6.6v1.9c10.5,4.2,17.1,5.6,17.2,5.6L19.6,411.9z"/>
			</g>
			<g>
				<path class="st1" d="M7.7,419.7C5,418.8,2.4,417.9,0,417v2.3c3.4,1.1,5.3,1.5,5.3,1.5L7.7,419.7z"/>
			</g>
		</g>
	</g>
	<g>
		<g>
			<path class="st10" d="M275.6,450h67.1c-23.2-7.9-46.1-18.6-46.1-18.6C291.6,438,284.1,444.3,275.6,450z"/>
			<g>
				<g>
					<path class="st3" d="M272.8,450h79.4c-25.6-7.8-54.4-21.2-54.4-21.2C292.2,436.4,283,443.6,272.8,450z"/>
				</g>
				<g>
					<path class="st1" d="M294.8,445.3c2.8,1.7,5.4,3.3,8,4.7h3.7c-6.1-3.3-9.1-5.7-9.1-5.7L294.8,445.3z"/>
				</g>
			</g>
		</g>
		<g>
			<path class="st10" d="M450,433.4C450,433.4,450,433.4,450,433.4c-4.3,5.8-10.8,11.4-18.1,16.6H450V433.4z"/>
			<g>
				<g>
					<path class="st3" d="M450,432.4c-5.1,6.2-12.5,12.2-20.7,17.6H450V432.4z"/>
				</g>
				<g>
					<path class="st1" d="M448.2,447.3c0.6,0.4,1.2,0.7,1.8,1.1v-1.7L448.2,447.3z"/>
				</g>
			</g>
		</g>
	</g>
	<g>
		<path class="st10" d="M438.6,260.3c0,0-50.4,18.1-77.7,19.3c48.7,44.4,75.5,60.4,89.2,66.1V274
			C445.3,269.5,441.4,264.9,438.6,260.3z"/>
		<g>
			<g>
				<path class="st3" d="M437.5,257.6c0,0-50.4,18.1-77.7,19.3c50.1,45.6,76.9,61.3,90.2,66.6v-71.2
					C444.9,267.4,440.5,262.5,437.5,257.6z"/>
			</g>
			<g>
				<path class="st1" d="M388.8,289.2l2.3,1.2c0.3,0,20.4-2.4,47.9-16.1l-2.5-1.2C436.5,273.1,420.2,283.4,388.8,289.2z"/>
			</g>
			<g>
				<path class="st1" d="M398.2,296.9l2.3,1.2c0.3,0,20.4-2.4,47.9-16.1l-2.5-1.2C445.9,280.9,429.6,291.2,398.2,296.9z"/>
			</g>
			<g>
				<path class="st1" d="M409.8,305.9c0.2,0,16.7-2,40.2-12.4v-2c-7.1,3.5-21.3,9.4-42.4,13.2L409.8,305.9z"/>
			</g>
			<g>
				<path class="st1" d="M421,314.8c0.2,0,11.5-1.4,29-8.9v-2.4c-7.5,3.1-17.9,6.8-31.3,10L421,314.8z"/>
			</g>
			<g>
				<path class="st1" d="M434.4,324.9c0.1,0,6.1-1.6,15.6-5.7v-2.3c-5,2.2-11,4.5-17.9,6.8L434.4,324.9z"/>
			</g>
		</g>
	</g>
	<g>
		<path class="st10" d="M276.5,275.9c0,0-48.5,22.6-75.6,26.3c58.1,44,86.4,55.9,98.8,58.9c5.5-5.6,22.8-22,53.9-38.9
			C353.5,322.2,295.3,301.2,276.5,275.9z"/>
		<g>
			<g>
				<path class="st3" d="M275.1,273.2c0,0-48.5,22.6-75.6,26.3c58.1,44,86.4,55.9,98.8,58.9c5.5-5.6,22.8-22,53.9-38.9
					C352.2,319.5,293.9,298.6,275.1,273.2z"/>
			</g>
			<g>
				<path class="st1" d="M229.5,309.2l2.4,1c0.3,0,20.1-4.3,46.3-20.4l-2.6-1C275.6,288.8,260.3,300.6,229.5,309.2z"/>
			</g>
			<g>
				<path class="st1" d="M239.6,316l2.4,1c0.3,0,20.1-4.3,46.3-20.4l-2.6-1C285.6,295.7,270.4,307.5,239.6,316z"/>
			</g>
			<g>
				<path class="st1" d="M249.6,322.9l2.4,1c0.3,0,20.1-4.3,46.3-20.4l-2.6-1C295.6,302.6,280.4,314.3,249.6,322.9z"/>
			</g>
			<g>
				<path class="st1" d="M261.5,330.8l2.4,1c0.3,0,18.9-4.2,44.4-21.3l-2.6-1C305.7,309.4,291.4,320.6,261.5,330.8z"/>
			</g>
			<g>
				<path class="st1" d="M275.8,339.6l2.4,1c0.3,0,18-6.7,40.1-23.3l-2.6-1C315.7,316.3,305,326.6,275.8,339.6z"/>
			</g>
		</g>
	</g>
	<g>
		<path class="st10" d="M123.8,293.4c0,0-48.5,22.6-75.6,26.3c58.1,44,86.4,55.9,98.8,58.9c5.5-5.6,22.8-22,53.9-38.9
			C200.9,339.7,142.6,318.7,123.8,293.4z"/>
		<g>
			<g>
				<path class="st3" d="M122.5,290.7c0,0-48.5,22.6-75.6,26.3c58.1,44,86.4,55.9,98.8,58.9c5.5-5.6,22.8-22,53.9-38.9
					C199.5,337,141.3,316,122.5,290.7z"/>
			</g>
			<g>
				<path class="st1" d="M76.9,326.6l2.4,1c0.3,0,20.1-4.3,46.3-20.4l-2.6-1C123,306.3,107.7,318.1,76.9,326.6z"/>
			</g>
			<g>
				<path class="st1" d="M87,333.5l2.4,1c0.3,0,20.1-4.3,46.3-20.4l-2.6-1C133,313.2,117.7,324.9,87,333.5z"/>
			</g>
			<g>
				<path class="st1" d="M97,340.4l2.4,1c0.3,0,20.1-4.3,46.3-20.4l-2.6-1C143,320,127.8,331.8,97,340.4z"/>
			</g>
			<g>
				<path class="st1" d="M108.9,348.2l2.4,1c0.3,0,18.9-4.2,44.4-21.3l-2.6-1C153.1,326.9,138.8,338.1,108.9,348.2z"/>
			</g>
			<g>
				<path class="st1" d="M123.2,357.1l2.4,1c0.3,0,18-6.7,40.1-23.3l-2.6-1C163.1,333.8,152.3,344,123.2,357.1z"/>
			</g>
		</g>
	</g>
	<g>
		<g>
			<path class="st10" d="M117.6,400.7c-18.8,25.3-77,46.3-77,46.3c1.9,1,3.7,2,5.4,3h115.4c9.5-6.5,20-14.1,31.8-23
				C166.2,423.3,117.6,400.7,117.6,400.7z"/>
			<g>
				<g>
					<path class="st3" d="M119,398c-18.8,25.3-77,46.3-77,46.3c3.5,1.9,6.8,3.8,10,5.7h106.9c10.4-7,22.3-15.5,35.8-25.7
						C167.5,420.6,119,398,119,398z"/>
				</g>
				<g>
					<path class="st1" d="M115.9,414.6c26.1,16.1,46,20.4,46.3,20.4l2.4-1c-30.8-8.6-46-20.3-46-20.3L115.9,414.6z"/>
				</g>
				<g>
					<path class="st1" d="M105.9,421.4c26.1,16.1,46,20.4,46.3,20.4l2.4-1c-30.8-8.6-46-20.3-46-20.3L105.9,421.4z"/>
				</g>
				<g>
					<path class="st1" d="M95.8,428.3c26.1,16.1,46,20.4,46.3,20.4l2.4-1c-30.8-8.6-46-20.3-46-20.3L95.8,428.3z"/>
				</g>
				<g>
					<path class="st1" d="M85.8,435.2c10.1,6.8,19.1,11.6,26.3,14.8h5.8c-19.9-8.3-29.5-15.8-29.5-15.8L85.8,435.2z"/>
				</g>
				<g>
					<path class="st1" d="M75.8,442c3.9,3,7.7,5.6,11.3,8h3.7c-8.8-5.5-12.4-8.9-12.4-8.9L75.8,442z"/>
				</g>
			</g>
		</g>
		<g>
			<path class="st10" d="M270.9,413.8c-10.8,14.5-34.6,27.7-52.9,36.2h115.3c4.3-3.1,8.7-6.4,13.3-9.9
				C319.4,436.5,270.9,413.8,270.9,413.8z"/>
			<g>
				<g>
					<path class="st3" d="M272.2,411.2c-12,16.2-40.1,30.5-58.8,38.8h117.5c5.4-3.9,11-8,17-12.6
						C320.7,433.8,272.2,411.2,272.2,411.2z"/>
				</g>
				<g>
					<path class="st1" d="M269.1,427.7c26.1,16.1,46,20.4,46.3,20.4l2.4-1c-30.8-8.6-46-20.3-46-20.3L269.1,427.7z"/>
				</g>
				<g>
					<path class="st1" d="M259.1,434.6c12,7.4,22.7,12.3,30.8,15.4h5.3c-22.4-7.8-33.5-16.4-33.5-16.4L259.1,434.6z"/>
				</g>
				<g>
					<path class="st1" d="M249,441.4c5.4,3.3,10.6,6.2,15.3,8.6h3.9c-11.1-5.3-16.6-9.5-16.6-9.5L249,441.4z"/>
				</g>
				<g>
					<path class="st1" d="M239,448.3c0.9,0.6,1.7,1.1,2.5,1.7h3.9c-2.6-1.7-3.8-2.7-3.8-2.7L239,448.3z"/>
				</g>
			</g>
		</g>
		<g>
			<path class="st10" d="M450,396.2c-17.4-6.7-31.8-13.4-31.8-13.4c-18.8,25.3-77,46.3-77,46.3c13.5,7.3,24.4,14.6,32.9,20.9h60.1
				c4.8-2.8,10.1-6.1,15.8-9.8V396.2z"/>
			<g>
				<g>
					<path class="st3" d="M450,393c-16.8-6.5-30.4-12.9-30.4-12.9c-18.8,25.3-77,46.3-77,46.3c15.5,8.4,27.5,16.7,36.4,23.6h52
						c5.6-3.2,12-7,19.1-11.6V393z"/>
				</g>
				<g>
					<path class="st1" d="M419.1,395.7l-2.6,1c13.4,8.3,25.2,13.4,33.5,16.5v-2C429.4,403.6,419.1,395.7,419.1,395.7z"/>
				</g>
				<g>
					<path class="st1" d="M409.1,402.6l-2.6,1c20.5,12.6,37.2,18,43.5,19.7v-1.8C422.7,413.1,409.1,402.6,409.1,402.6z"/>
				</g>
				<g>
					<path class="st1" d="M396.4,410.4c26.1,16.1,46,20.4,46.3,20.4l2.4-1c-30.8-8.6-46-20.3-46-20.3L396.4,410.4z"/>
				</g>
				<g>
					<path class="st1" d="M386.4,417.3c25.5,17.2,44.1,21.3,44.4,21.3l2.4-1c-29.9-10.2-44.1-21.3-44.1-21.3L386.4,417.3z"/>
				</g>
				<g>
					<path class="st1" d="M376.4,424.2c22.2,16.6,39.9,23.3,40.1,23.3l2.4-1c-29.1-13.1-39.9-23.3-39.9-23.3L376.4,424.2z"/>
				</g>
			</g>
		</g>
	</g>
	<g>
		<path class="st10" d="M9.5,376.3c-2.5,3.4-5.8,6.8-9.5,10V450h13.9c16.2-8.6,39.2-23.1,71.3-47.4C58.1,398.9,9.5,376.3,9.5,376.3z
			"/>
		<g>
			<g>
				<path class="st3" d="M10.9,373.6C8,377.4,4.3,381.1,0,384.7V450h10c16.4-8.2,40.8-23.1,76.5-50.1
					C59.4,396.2,10.9,373.6,10.9,373.6z"/>
			</g>
			<g>
				<path class="st1" d="M7.8,390.2c26.1,16.1,46,20.4,46.3,20.4l2.4-1c-30.8-8.6-46-20.3-46-20.3L7.8,390.2z"/>
			</g>
			<g>
				<path class="st1" d="M46.4,416.4c-30.8-8.6-46-20.3-46-20.3L0,396.2v2.2c25,15,43.8,19,44,19L46.4,416.4z"/>
			</g>
			<g>
				<path class="st1" d="M36.4,423.3C19.7,418.6,7.6,413,0,408.9v2c19.8,10.4,33.8,13.4,34,13.4L36.4,423.3z"/>
			</g>
			<g>
				<path class="st1" d="M24.5,431.1c-9.8-3.3-18-6.8-24.5-9.9v2.5c13.4,6.5,21.9,8.4,22.1,8.4L24.5,431.1z"/>
			</g>
			<g>
				<path class="st1" d="M10.2,440c-3.7-1.6-7.1-3.3-10.2-4.8v2.4c4.8,2.3,7.7,3.4,7.8,3.4L10.2,440z"/>
			</g>
		</g>
	</g>
	<g>
		<path class="st10" d="M121.7,314c0,0-48.5,22.6-75.6,26.3c58.1,44,86.4,55.9,98.8,58.9c5.5-5.6,22.8-22,53.9-38.9
			C198.7,360.3,140.5,339.3,121.7,314z"/>
		<g>
			<g>
				<path class="st3" d="M120.3,311.3c0,0-48.5,22.6-75.6,26.3c58.1,44,86.4,55.9,98.8,58.9c5.5-5.6,22.8-22,53.9-38.9
					C197.4,357.6,139.2,336.7,120.3,311.3z"/>
			</g>
			<g>
				<path class="st1" d="M74.8,347.2l2.4,1c0.3,0,20.1-4.3,46.3-20.4l-2.6-1C120.8,326.9,105.5,338.7,74.8,347.2z"/>
			</g>
			<g>
				<path class="st1" d="M84.8,354.1l2.4,1c0.3,0,20.1-4.3,46.3-20.4l-2.6-1C130.8,333.8,115.6,345.6,84.8,354.1z"/>
			</g>
			<g>
				<path class="st1" d="M94.8,361l2.4,1c0.3,0,20.1-4.3,46.3-20.4l-2.6-1C140.9,340.7,125.6,352.4,94.8,361z"/>
			</g>
			<g>
				<path class="st1" d="M106.8,368.9l2.4,1c0.3,0,18.9-4.2,44.4-21.3l-2.6-1C150.9,347.5,136.6,358.7,106.8,368.9z"/>
			</g>
			<g>
				<path class="st1" d="M121,377.7l2.4,1c0.3,0,18-6.7,40.1-23.3l-2.6-1C160.9,354.4,150.2,364.7,121,377.7z"/>
			</g>
		</g>
	</g>
	<g>
		<g>
			<path class="st10" d="M362.5,423.3c0,0-48.5,22.6-75.6,26.3c0.2,0.2,0.4,0.3,0.6,0.4h109.4C383.3,442.4,369.9,433.2,362.5,423.3z
				"/>
			<g>
				<g>
					<path class="st3" d="M361.2,420.6c0,0-48.5,22.6-75.6,26.3c1.4,1.1,2.8,2.1,4.1,3.1h110.7C385.3,442,369.5,431.7,361.2,420.6z"
						/>
				</g>
				<g>
					<path class="st1" d="M361.7,436.2c0,0-8.8,6.8-26.5,13.8h4.7c7-3.1,15.4-7.2,24.5-12.8L361.7,436.2z"/>
				</g>
				<g>
					<path class="st1" d="M371.7,443.1c0,0-3.8,2.9-11.5,6.9h3.7c3.3-1.8,6.8-3.8,10.4-6L371.7,443.1z"/>
				</g>
				<g>
					<path class="st1" d="M381.6,450h0.3H381.6C381.7,449.9,381.7,450,381.6,450z"/>
				</g>
			</g>
		</g>
		<g>
			<path class="st10" d="M217.1,382c0,0-48.5,22.6-75.6,26.3c25.9,19.6,45.8,32.8,61.1,41.7h57.6c8.6-6.5,19.9-14.1,34-21.7
				C294.1,428.3,235.9,407.3,217.1,382z"/>
			<g>
				<g>
					<path class="st3" d="M215.7,379.3c0,0-48.5,22.6-75.6,26.3c28.6,21.7,50,35.5,65.8,44.4h49.4c9-7,21.4-15.6,37.5-24.4
						C292.8,425.6,234.5,404.6,215.7,379.3z"/>
				</g>
				<g>
					<path class="st1" d="M170.2,415.2l2.4,1c0.3,0,20.1-4.3,46.3-20.4l-2.6-1C216.2,394.9,200.9,406.7,170.2,415.2z"/>
				</g>
				<g>
					<path class="st1" d="M180.2,422.1l2.4,1c0.3,0,20.1-4.3,46.3-20.4l-2.6-1C226.2,401.8,211,413.5,180.2,422.1z"/>
				</g>
				<g>
					<path class="st1" d="M190.2,429l2.4,1c0.3,0,20.1-4.3,46.3-20.4l-2.6-1C236.2,408.6,221,420.4,190.2,429z"/>
				</g>
				<g>
					<path class="st1" d="M202.1,436.8l2.4,1c0.3,0,18.9-4.2,44.4-21.3l-2.6-1C246.3,415.5,232,426.7,202.1,436.8z"/>
				</g>
				<g>
					<path class="st1" d="M216.4,445.7l2.4,1c0.3,0,18-6.7,40.1-23.3l-2.6-1C256.3,422.4,245.6,432.6,216.4,445.7z"/>
				</g>
			</g>
		</g>
	</g>
	<g>
		<path class="st10" d="M172.6,368.2c31.1,16.9,48.4,33.2,53.9,38.9c12.5-3,40.7-14.9,98.8-58.9c-27.1-3.7-75.6-26.3-75.6-26.3
			C230.8,347.3,172.6,368.2,172.6,368.2z"/>
		<g>
			<g>
				<path class="st3" d="M173.9,365.6c31.1,16.9,48.4,33.2,53.9,38.9c12.5-3,40.7-14.9,98.8-58.9c-27.1-3.7-75.6-26.3-75.6-26.3
					C232.2,344.6,173.9,365.6,173.9,365.6z"/>
			</g>
			<g>
				<path class="st1" d="M247.9,335.8c26.1,16.1,46,20.4,46.3,20.4l2.4-1c-30.8-8.6-46-20.3-46-20.3L247.9,335.8z"/>
			</g>
			<g>
				<path class="st1" d="M237.9,342.7c26.1,16.1,46,20.4,46.3,20.4l2.4-1c-30.8-8.6-46-20.3-46-20.3L237.9,342.7z"/>
			</g>
			<g>
				<path class="st1" d="M227.8,349.6c26.1,16.1,46,20.4,46.3,20.4l2.4-1c-30.8-8.6-46-20.3-46-20.3L227.8,349.6z"/>
			</g>
			<g>
				<path class="st1" d="M217.8,356.4c25.5,17.2,44.1,21.4,44.4,21.3l2.4-1c-29.9-10.2-44.1-21.3-44.1-21.3L217.8,356.4z"/>
			</g>
			<g>
				<path class="st1" d="M207.8,363.3c22.2,16.6,39.9,23.3,40.1,23.3l2.4-1c-29.1-13.1-39.9-23.3-39.9-23.3L207.8,363.3z"/>
			</g>
		</g>
	</g>
	<g>
		<path class="st10" d="M303.6,348.2c31.1,16.9,48.4,33.2,53.9,38.9c12-2.9,38.6-14,92.6-54.2v-5.8c-27.7-5.8-69.4-25.2-69.4-25.2
			C361.8,327.2,303.6,348.2,303.6,348.2z"/>
		<g>
			<g>
				<path class="st3" d="M304.9,345.6c31.1,16.9,48.4,33.2,53.9,38.9c11.9-2.8,38.2-13.8,91.2-53.2v-7.1c-27.7-6.1-68-24.9-68-24.9
					C363.2,324.6,304.9,345.6,304.9,345.6z"/>
			</g>
			<g>
				<path class="st1" d="M378.9,315.8c26.1,16.1,46,20.4,46.3,20.4l2.4-1c-30.8-8.6-46-20.3-46-20.3L378.9,315.8z"/>
			</g>
			<g>
				<path class="st1" d="M368.9,322.7c26.1,16.1,46,20.4,46.3,20.4l2.4-1c-30.8-8.6-46-20.3-46-20.3L368.9,322.7z"/>
			</g>
			<g>
				<path class="st1" d="M358.8,329.6c26.1,16.1,46,20.4,46.3,20.4l2.4-1c-30.8-8.6-46-20.3-46-20.3L358.8,329.6z"/>
			</g>
			<g>
				<path class="st1" d="M348.8,336.4c25.5,17.2,44.1,21.3,44.4,21.3l2.4-1c-29.9-10.2-44.1-21.3-44.1-21.3L348.8,336.4z"/>
			</g>
			<g>
				<path class="st1" d="M338.7,343.3c22.2,16.6,39.9,23.3,40.1,23.3l2.4-1c-29.1-13.1-39.9-23.3-39.9-23.3L338.7,343.3z"/>
			</g>
		</g>
	</g>
	<g>
		<path class="st10" d="M303.6,354.9c0,0-50.3,18.3-77.6,19.6c54.1,48.9,81.2,63.2,93.3,67.2c6-5.1,24.6-19.9,57-34.1
			C376.4,407.8,320.2,381.8,303.6,354.9z"/>
		<g>
			<g>
				<path class="st3" d="M302.5,352.2c0,0-50.3,18.3-77.6,19.6c54.1,48.9,81.2,63.2,93.3,67.2c6-5.1,24.6-19.9,57-34.1
					C375.3,405,319.1,379,302.5,352.2z"/>
			</g>
			<g>
				<path class="st1" d="M254,384l2.3,1.2c0.3,0,20.4-2.5,47.9-16.3l-2.5-1.2C301.6,367.7,285.4,378.1,254,384z"/>
			</g>
			<g>
				<path class="st1" d="M263.4,391.7l2.3,1.2c0.3,0,20.4-2.5,47.9-16.3l-2.5-1.2C311,375.4,294.8,385.9,263.4,391.7z"/>
			</g>
			<g>
				<path class="st1" d="M272.8,399.4l2.3,1.2c0.3,0,20.4-2.5,47.9-16.3l-2.5-1.2C320.4,383.2,304.2,393.6,272.8,399.4z"/>
			</g>
			<g>
				<path class="st1" d="M284,408.3l2.3,1.2c0.3,0,19.2-2.5,46.1-17.4l-2.5-1.2C329.9,390.9,314.6,400.8,284,408.3z"/>
			</g>
			<g>
				<path class="st1" d="M297.5,418.4l2.3,1.2c0.3,0,18.5-5.1,42-19.8l-2.5-1.2C339.3,398.6,327.6,407.9,297.5,418.4z"/>
			</g>
		</g>
	</g>
	<g>
		<path class="st10" d="M84.2,331.8c31.1,16.9,48.4,33.2,53.9,38.9c12.5-3,40.7-14.9,98.8-58.9c-27.1-3.7-75.6-26.3-75.6-26.3
			C142.4,310.8,84.2,331.8,84.2,331.8z"/>
		<g>
			<g>
				<path class="st3" d="M85.5,329.2c31.1,16.9,48.4,33.2,53.9,38.9c12.5-3,40.7-14.9,98.8-58.9c-27.1-3.7-75.6-26.3-75.6-26.3
					C143.7,308.2,85.5,329.2,85.5,329.2z"/>
			</g>
			<g>
				<path class="st1" d="M159.5,299.4c26.1,16.1,46,20.4,46.3,20.4l2.4-1c-30.8-8.6-46-20.3-46-20.3L159.5,299.4z"/>
			</g>
			<g>
				<path class="st1" d="M149.4,306.3c26.1,16.1,46,20.4,46.3,20.4l2.4-1c-30.8-8.6-46-20.3-46-20.3L149.4,306.3z"/>
			</g>
			<g>
				<path class="st1" d="M139.4,313.1c26.1,16.1,46,20.4,46.3,20.4l2.4-1c-30.8-8.6-46-20.3-46-20.3L139.4,313.1z"/>
			</g>
			<g>
				<path class="st1" d="M129.4,320c25.5,17.2,44.1,21.3,44.4,21.3l2.4-1C146.3,330.2,132,319,132,319L129.4,320z"/>
			</g>
			<g>
				<path class="st1" d="M119.3,326.9c22.2,16.6,39.9,23.3,40.1,23.3l2.4-1c-29.1-13.1-39.9-23.3-39.9-23.3L119.3,326.9z"/>
			</g>
		</g>
	</g>
	<g>
		<path class="st10" d="M13.6,245.2C10.3,250.3,5.5,255.3,0,260v70.1c13.9-5.4,41.1-20.7,90.7-63.2
			C63.4,264.9,13.6,245.2,13.6,245.2z"/>
		<g>
			<g>
				<path class="st3" d="M14.8,242.5C11.3,247.9,6,253.2,0,258.3v69.5c13.6-5,40.9-19.9,91.9-63.7C64.6,262.1,14.8,242.5,14.8,242.5
					z"/>
			</g>
			<g>
				<path class="st1" d="M12.7,259.2c27.1,14.5,47.2,17.5,47.4,17.5l2.3-1.1C31.2,268.9,15.3,258,15.3,258L12.7,259.2z"/>
			</g>
			<g>
				<path class="st1" d="M3.1,266.6c27.1,14.5,47.2,17.5,47.4,17.5l2.3-1.1c-31.2-6.7-47.2-17.5-47.2-17.5L3.1,266.6z"/>
			</g>
			<g>
				<path class="st1" d="M43.2,290.5C21,285.7,6.5,278.8,0,275.3v2.1c23.7,11.6,40.7,14.2,40.9,14.2L43.2,290.5z"/>
			</g>
			<g>
				<path class="st1" d="M31.8,299.1c-13.8-3.8-24.4-7.9-31.8-11.4v2.4c17.7,8.3,29.3,10.1,29.5,10.1L31.8,299.1z"/>
			</g>
			<g>
				<path class="st1" d="M18.1,308.8c-7-2.7-13-5.2-18.1-7.6v2.4c9.6,4.5,15.6,6.4,15.8,6.4L18.1,308.8z"/>
			</g>
		</g>
	</g>
</g>
</svg>
