<?xml version="1.0" encoding="utf-8"?>
<!-- Generator: Adobe Illustrator 19.0.0, SVG Export Plug-In . SVG Version: 6.00 Build 0)  -->
<svg version="1.1" id="Layer_1" xmlns="http://www.w3.org/2000/svg" xmlns:xlink="http://www.w3.org/1999/xlink" x="0px" y="0px"
	 viewBox="-145 239 320 315" style="enable-background:new -145 239 320 315;" xml:space="preserve">
<style type="text/css">
	.st0{fill:#FFFFFF;stroke:#000000;stroke-miterlimit:10;}
	.st1{fill:#FABB85;}
	.st2{fill:#4D4D4D;}
	.st3{fill:#CF8B50;}
	.st4{fill:#BF8656;}
	.st5{fill:#808080;}
	.st6{fill:#A1A1A1;}
	.st7{fill:#696969;}
	.st8{fill:#636363;}
	.st9{fill:#525252;}
	.st10{fill:#FFFFFF;}
</style>
<rect x="-145" y="239" class="st0" width="320" height="315"/>
<g>
	<rect x="-107.7" y="279.3" width="255.2" height="8.1"/>
	<rect x="-97.3" y="338.9" width="244.8" height="4.1"/>
	<rect x="-97.3" y="453.9" width="244.8" height="4.1"/>
	<rect x="-107.7" y="394.4" width="255.2" height="8.1"/>
	<rect x="-107.7" y="509.4" width="255.2" height="8.1"/>
	<g>
		<polygon class="st1" points="-2.6,408.8 21.9,460.5 46.3,408.8 		"/>
		<path class="st2" d="M126.9,413c-9.9-33.8-53.5-33.7-76.4-41.6H-4c-23,7.8-66.6,7.8-76.4,41.6c0,0-8.8,46.3-8.3,63.7
			c0.5,16.9,7.2,37.5,11.7,44.6c3.8,5.8,7.9,10.1,13.7,11.2h172.9c5.9-1.1,10-5.5,13.7-11.2c4.6-7.1,11.2-27.7,11.7-44.6
			C135.6,459.3,126.9,413,126.9,413z M52.4,376.5c-0.2,8.7-0.8,21.1-0.8,31.1c-8.8,2.7-18.3,4.2-28.3,4.2c-10.1,0-19.8-1.5-28.7-4.3
			c0-10-0.5-22.3-0.7-31L52.4,376.5L52.4,376.5z"/>
		<path class="st2" d="M52.4,376.5c-0.2,8.7-0.8,21.1-0.8,31.1c-8.8,2.7-18.3,4.2-28.3,4.2c-10.1,0-19.8-1.5-28.7-4.3
			c0-10-0.5-22.3-0.7-31L52.4,376.5L52.4,376.5z"/>
		<path class="st1" d="M52.4,376.5c-0.1,5.6-0.4,12.8-0.6,19.9c-0.2,6.9-4.7,12.6-10.7,13.7c-5.7,1.1-11.7,1.6-17.8,1.6
			c-6.3,0-12.3-0.6-18.2-1.7c-6-1.1-10.5-6.9-10.6-13.7c-0.2-7.1-0.5-14.2-0.6-19.8H52.4z"/>
		<path class="st3" d="M23.2,404.3c-12.8,0-22.3-9.1-29.1-22.3c0,1.3,0.1,2.7,0.1,4.1c6.7,13.1,16.2,22,28.9,22s22.2-9,28.9-22
			c0-1.4,0.1-2.7,0.1-4.1C45.5,395.2,36,404.3,23.2,404.3z"/>
		<path class="st1" d="M65.6,317.1c0,35.9-11.9,87.2-42.4,87.2c-30.4,0-42.4-51.3-42.4-87.2s19-64.9,42.4-64.9
			C46.6,252.2,65.6,281.3,65.6,317.1z"/>
		<g>
			<path class="st1" d="M64.7,322.9c4.3-8.4,10.5-6.7,9.1,9.5c-0.7,8.2-7.9,31.3-13.4,20.1C62,342,64.7,322.9,64.7,322.9z"/>
			<path class="st1" d="M-18.3,322.9c-4.3-8.4-10.5-6.7-9.1,9.5c0.7,8.2,7.9,31.3,13.4,20.1C-15.7,342-18.3,322.9-18.3,322.9z"/>
		</g>
		<path class="st4" d="M58.4,266.1c-8.7-10.1-22.7-13.9-35.2-13.9S-3.3,256-12,266.1c-14.2,16.5-14,47.9-10.3,60.3
			c1.4,4.5,4,16.4,5.4,21.2c0.2-9.9-1.6-23.5,1.7-26.3c3.4-2.9,3-10.1,2.4-13.4c-0.6-3.3-1-11.3,7.7-16.7c8.7-5.4,18.6-0.6,28.3-0.6
			s19.6-4.8,28.3,0.6s8.3,13.4,7.7,16.7c-0.6,3.3-1,10.5,2.4,13.4s1.5,13.7,1.7,23.7c1.4-4.8,2.8-16.1,4.5-20.5
			C73.1,311,72.6,282.6,58.4,266.1z"/>
		<g>
			<path class="st2" d="M74.5,282.6c-1-3.3-7.9-4.4-10.6-4.3c1.6,2.9,3.8,5.5,6.6,7.5C73.2,283.6,74.5,282.6,74.5,282.6z"/>
			<path class="st2" d="M-28.1,282.6c1-3.3,7.9-4.4,10.6-4.3c-1.6,2.9-3.8,5.5-6.6,7.5C-26.8,283.6-28.1,282.6-28.1,282.6z"/>
			<path class="st5" d="M23.2,308.4c19.5,0,37.2-3.9,50.3-10.2c-2.3-29-24-51.7-50.3-51.7c-26.4,0-48,22.7-50.3,51.7
				C-14,304.5,3.7,308.4,23.2,308.4z"/>
			<path class="st6" d="M18.2,249.5c0,0-0.2,0-0.5,0.1s-0.9,0.2-1.5,0.4s-1.4,0.4-2.3,0.8c-0.9,0.3-1.8,0.7-2.9,1.2
				s-2.1,1.1-3.3,1.7c-1.1,0.7-2.4,1.4-3.5,2.2c-1.2,0.8-2.4,1.7-3.6,2.6s-2.4,2-3.5,3c-1.1,1.1-2.3,2.2-3.3,3.4
				c-1.1,1.1-2,2.4-2.9,3.5c-0.9,1.1-1.6,2.4-2.4,3.5c-0.7,1.2-1.3,2.3-1.8,3.4s-0.9,2.1-1.3,3c-0.4,0.9-0.6,1.7-0.8,2.4
				c-0.4,1.3-0.7,2.1-0.7,2.1l-0.1,0.2c-0.4,1.3-1.7,1.9-2.8,1.5c-1.1-0.5-1.7-1.9-1.3-3.2c0-0.1,0-0.1,0.1-0.2c0,0,0.3-0.8,0.9-2.3
				c0.3-0.7,0.6-1.6,1.1-2.6c0.5-0.9,1-2,1.7-3.2c0.7-1.1,1.4-2.3,2.3-3.5c0.9-1.1,1.8-2.4,2.9-3.5c1.1-1.2,2.1-2.4,3.3-3.4
				c1.2-1.1,2.4-2.1,3.7-3.2c1.3-1,2.6-1.9,3.9-2.8c1.3-0.8,2.6-1.6,3.9-2.3c1.3-0.7,2.6-1.3,3.8-1.9c1.2-0.5,2.4-1,3.5-1.4
				s2.1-0.7,3-0.9c0.9-0.3,1.7-0.4,2.4-0.5s1.2-0.2,1.5-0.2C18,249.5,18.2,249.5,18.2,249.5z"/>
			<path class="st7" d="M60.2,268.6c0.4-0.3,1.1,0.4,1.3,0.8s0.5,0.8,0.8,1.2c1.1,1.5,2.2,3.3,3.1,5.6c0.4,1.2,0.9,2.3,1,4
				c0,1.7-0.8,3.1-2.1,3.7c-2.2,1.2-4.8,1.7-7.9,2.3c-1.8,0.4-3.6,0.5-5.6,0.5c-0.5,0-3.7-0.1-3.5-0.8c0.1-0.5,1.4-0.8,1.7-0.9
				c2.3-0.5,4.5-1.1,6.8-1.6c1.1-0.3,5.6-1.6,6.3-2.4c0.9-0.9,1-2.4,0.6-3.7c-0.4-1.3-0.8-2.6-1.3-3.9c-0.4-1.1-1.1-2.3-1.4-3.4
				c-0.1-0.2-0.1-0.5-0.1-0.7C60,268.8,60.1,268.7,60.2,268.6z"/>
			<path class="st8" d="M75.7,282.9c-13.5,7.1-32.1,7.9-52.5,8.1c-20.4-0.2-39.1-0.9-52.5-8.1c-1.5,6.9-3,13.2-3,20.5
				c0,1.4,0,2.7,0.1,4c0.1,2.2,1.3,4.2,3.1,5.2c13.4,7.1,31.9,11.6,52.2,11.8c20.4-0.2,38.8-4.7,52.2-11.8c1.8-1,3-2.9,3.1-5.2
				c0.1-1.3,0.1-2.7,0.1-4C78.7,296,77.2,289.7,75.7,282.9z"/>
			<path class="st9" d="M33,292.2c0.5,10.2,0.8,24.1,0.8,31.5c1-0.1,2-0.2,3-0.3c0-7.6-0.3-21.3-0.8-31.4
				C34.9,292.2,34,292.2,33,292.2z M9.6,323.5c1,0.1,2,0.2,3,0.3c0-7.2,0.3-21.1,0.8-31.5c-1,0-2-0.1-3-0.1
				C10,302.5,9.7,316.2,9.6,323.5z M44.3,291.6c1,10.3,1.5,23.5,1.6,30.6c1-0.2,2-0.4,3-0.6c-0.1-7.3-0.6-20.1-1.6-30.3
				C46.3,291.4,45.3,291.5,44.3,291.6z M55.8,290.3c1.4,10,2.1,22.3,2.2,29.1c1-0.3,2-0.6,2.9-0.9c-0.1-7.1-0.9-18.9-2.2-28.6
				C57.8,290,56.8,290.2,55.8,290.3z M69.9,287.2c-0.9,0.3-1.8,0.6-2.9,0.9c1.7,9,2.6,19.9,2.9,27c1-0.4,2-0.9,2.9-1.3
				C72.5,306.4,71.5,296,69.9,287.2z M-26.5,313.8c0.9,0.5,1.9,0.9,2.9,1.3c0.3-7.3,1.3-18.3,2.9-27c-1-0.3-2-0.6-2.9-0.9
				C-25.1,295.8-26.1,306.4-26.5,313.8z M23.2,292.4c-0.5,0-1,0-1.5,0c0,8.6,0,19.6,0,27.2v4.6c0.5,0,1,0,1.5,0s1,0,1.5,0v-4.6
				c0-7.6,0-18.6,0-27.2C24.2,292.4,23.7,292.4,23.2,292.4z M-14.5,318.5c1,0.3,1.9,0.6,2.9,0.9c0.1-6.8,0.9-19.3,2.2-29.1
				c-1-0.1-2-0.3-2.9-0.5C-13.6,299.4-14.4,311.4-14.5,318.5z M-2.5,321.7c1,0.2,2,0.4,3,0.6c0.1-7,0.6-20.4,1.6-30.6
				c-1-0.1-2-0.2-3-0.3C-1.8,301.4-2.4,314.4-2.5,321.7z"/>
			<path class="st6" d="M68.4,278c0.2,0.5,0.4,1,0.6,1.5c2.2,0.8,3.4,1.7,3.4,2.7c0,4-22.1,7.3-49.3,7.3s-49.3-3.3-49.3-7.3
				c0-0.9,1.2-1.8,3.4-2.7c0.2-0.5,0.4-1,0.6-1.5c-4.6,1.4-7.3,3.1-7.3,4.9c0,5.3,23.5,9.6,52.5,9.6s52.5-4.3,52.5-9.6
				C75.7,281.1,73,279.4,68.4,278z"/>
		</g>
		<g>
			<path d="M23.8,328.5c-0.2,0-0.4,0-0.6,0c-15.3,0-29.3-2.7-39.7-7.1c-0.5,1.3-0.9,2.7-1.2,4.1c-2,11.1,5.7,22.3,17.2,24.9
				c11.4,2.6,22.3-4.4,24.3-15.5C24.1,332.8,24.1,330.6,23.8,328.5z M15.5,333.1c-1.2,6.7-7.7,10.9-14.6,9.3s-11.5-8.3-10.3-15l0,0
				c7.4,2.1,15.9,3.6,25.1,4C15.6,332,15.6,332.5,15.5,333.1z"/>
			<path d="M22.6,334.9c2,11.1,12.8,18.1,24.3,15.5c11.4-2.6,19.1-13.7,17.2-24.9c-0.3-1.4-0.7-2.8-1.2-4.1
				c-10.4,4.4-24.3,7.1-39.7,7.1c-0.2,0-0.4,0-0.6,0C22.3,330.6,22.3,332.8,22.6,334.9z M30.7,331.4c9.2-0.4,17.7-1.9,25.1-4l0,0
				c1.2,6.7-3.4,13.4-10.3,15s-13.4-2.6-14.6-9.3C30.8,332.5,30.7,332,30.7,331.4z"/>
			<path d="M69.8,317c-0.3,1.4-0.6,2.7-0.9,4c-1.8,1.4-3.7,2.5-5.8,3.5c-9.6,4.6-22.5,5.8-39.9,5.8c-17.3,0-30.2-1.1-39.9-5.7
				c-2.5-1.2-4.9-2.6-7-4.4c-0.2-1.1-0.3-2.3-0.4-3.5c2.7,1.5,5.8,2.9,9.3,4.2c10.2,3.6,23.4,5.7,37.9,5.7s27.7-2.2,37.9-5.7
				C64.3,319.7,67.3,318.4,69.8,317z"/>
		</g>
	</g>
	<g>
		<path d="M-112.6,285v0.7c0,8.6-4.6,11.8-10.6,11.8s-10.6-3.2-10.6-11.8v-14.3c0-8.6,4.8-11.8,10.9-11.8c7.2,0,10.3,5.1,10.3,9.4
			c0,2.1-0.9,2.8-2.8,2.8c-1.6,0-3.1-0.5-3.1-2.5c0-2.4-2.1-3.8-4.6-3.8c-3.1,0-4.9,1.9-4.9,5.9v5.6c1.5-2,3.7-2.6,6-2.6
			C-116.9,274.4-112.6,276.9-112.6,285z M-128,286.2c0,4.1,1.8,5.9,4.8,5.9c2.9,0,4.7-1.9,4.7-5.9v-0.7c0-4.3-1.8-5.9-4.8-5.9
			c-2.9,0-4.8,1.5-4.8,5.4L-128,286.2L-128,286.2z"/>
		<path d="M-108,260.5h6.2v5c0,2-0.2,3.7-0.5,4.8c-0.3,1.2-0.9,2.2-1.8,3.2c-0.9,0.9-2,1.7-3.3,2.2l-1.2-2.9
			c1.3-0.5,2.1-1.1,2.7-1.9c0.5-0.8,0.8-1.9,0.8-3.4h-3L-108,260.5L-108,260.5z"/>
	</g>
	<g>
		<path d="M-123.6,386.3c6,0,10.6,2.9,10.6,11v1c0,8.4-4.7,11.6-10.6,11.6c-6.9,0-10.7-4.5-10.7-9.3c0-2.4,1.1-3,2.9-3
			c2.5,0,2.9,1.1,2.9,2.6c0,2.5,2,3.9,4.7,3.9c3,0,4.8-1.8,4.8-5.7v-1c0-3.9-1.8-5.8-4.8-5.8h-6.7c-1.9,0-2.4-1-2.4-2.6
			c0-0.4,0-0.9,0-1.3l1.2-13.5c0.1-1.3,0.5-2.1,1.1-2.1h14c1.2,0,1.8,1.5,1.8,2.9c0,1.5-0.6,2.9-1.8,2.9h-10l-0.5,8.5L-123.6,386.3
			L-123.6,386.3z"/>
		<path d="M-108.9,372.8h6.2v5c0,2-0.2,3.7-0.5,4.8c-0.3,1.2-0.9,2.2-1.8,3.2c-0.9,0.9-2,1.7-3.3,2.2l-1.2-2.9
			c1.3-0.5,2.1-1.1,2.7-1.9c0.5-0.8,0.8-1.9,0.8-3.4h-3L-108.9,372.8L-108.9,372.8z"/>
	</g>
	<g>
		<path d="M-122,515.1h-10.9c-1.1,0-2-0.9-2-2.4c0-0.4,0.1-0.9,0.3-1.3l10.7-24c0.5-1.3,1.5-1.7,2.5-1.7s2.9,1,2.9,2.6
			c0,0.3-0.1,0.6-0.2,0.9l-8.7,19.7h5.4v-5.4c0-1.5,1.5-2.1,2.9-2.1c1.5,0,2.9,0.6,2.9,2.1v5.4h2.2c1.2,0,1.9,1.5,1.9,3.1
			c0,1.5-0.9,3.1-1.9,3.1h-2.1v6.1c0,1.4-1.5,2.1-2.9,2.1s-2.9-0.7-2.9-2.1L-122,515.1L-122,515.1z"/>
		<path d="M-109,486.5h6.2v5c0,2-0.2,3.7-0.5,4.8c-0.3,1.2-0.9,2.2-1.8,3.2c-0.9,0.9-2,1.7-3.3,2.2l-1.2-2.9
			c1.3-0.5,2.1-1.1,2.7-1.9c0.5-0.8,0.8-1.9,0.8-3.4h-3L-109,486.5L-109,486.5z"/>
	</g>
	<g>
		<rect x="-56.7" y="424.1" class="st10" width="159.8" height="102.9"/>
		<g>
			<g>
				<g>
					<path class="st1" d="M115.5,463.5H88c-1,0-1.8-0.8-1.8-1.8v-10.6c0-1,0.8-1.8,1.8-1.8h27.5c1,0,1.8,0.8,1.8,1.8v10.6
						C117.2,462.7,116.5,463.5,115.5,463.5z"/>
					<path class="st1" d="M115.5,505.8H88c-1,0-1.8-0.8-1.8-1.8v-10.6c0-1,0.8-1.8,1.8-1.8h27.5c1,0,1.8,0.8,1.8,1.8V504
						C117.2,505,116.5,505.8,115.5,505.8z"/>
					<path class="st1" d="M119.3,477.6H88.1c-1,0-1.9-0.8-1.9-1.9v-10.3c0-1,0.8-1.9,1.9-1.9h31.2c1,0,1.9,0.8,1.9,1.9v10.3
						C121.2,476.7,120.4,477.6,119.3,477.6z"/>
					<path class="st1" d="M119.3,491.7H88.1c-1,0-1.9-0.8-1.9-1.9v-10.3c0-1,0.8-1.9,1.9-1.9h31.2c1,0,1.9,0.8,1.9,1.9v10.3
						C121.2,490.8,120.4,491.7,119.3,491.7z"/>
				</g>
				<path class="st3" d="M91.2,463.5c-1.2,0-2.3,0.5-3.2,1.4h31.5c-0.9-0.8-2-1.4-3.2-1.4h-3.7c1.2,0,2.3-0.5,3.1-1.4H87.8
					c0.8,0.8,1.9,1.4,3.1,1.4H91.2z M91.2,491.7h-0.3c-1.2,0-2.3,0.5-3.1,1.4h27.9c-0.8-0.8-1.9-1.4-3.1-1.4h3.7
					c1.2,0,2.3-0.5,3.2-1.4H88C88.8,491.2,89.9,491.7,91.2,491.7z M88,476.2c0.9,0.8,2,1.4,3.2,1.4c-1.2,0-2.3,0.5-3.2,1.4h31.5
					c-0.9-0.8-2-1.4-3.2-1.4c1.2,0,2.3-0.5,3.2-1.4H88z"/>
			</g>
			<g>
				<g>
					<path class="st1" d="M-69.1,463.5h27.5c1,0,1.8-0.8,1.8-1.8v-10.6c0-1-0.8-1.8-1.8-1.8h-27.5c-1,0-1.8,0.8-1.8,1.8v10.6
						C-70.9,462.7-70.1,463.5-69.1,463.5z"/>
					<path class="st1" d="M-69.1,505.8h27.5c1,0,1.8-0.8,1.8-1.8v-10.6c0-1-0.8-1.8-1.8-1.8h-27.5c-1,0-1.8,0.8-1.8,1.8V504
						C-70.9,505-70.1,505.8-69.1,505.8z"/>
					<path class="st1" d="M-73,477.6h31.2c1,0,1.9-0.8,1.9-1.9v-10.3c0-1-0.8-1.9-1.9-1.9H-73c-1,0-1.9,0.8-1.9,1.9v10.3
						C-74.9,476.7-74,477.6-73,477.6z"/>
					<path class="st1" d="M-73,491.7h31.2c1,0,1.9-0.8,1.9-1.9v-10.3c0-1-0.8-1.9-1.9-1.9H-73c-1,0-1.9,0.8-1.9,1.9v10.3
						C-74.9,490.8-74,491.7-73,491.7z"/>
				</g>
				<path class="st3" d="M-44.8,463.5c1.2,0,2.3,0.5,3.2,1.4h-31.5c0.9-0.8,2-1.4,3.2-1.4h3.7c-1.2,0-2.3-0.5-3.1-1.4h27.9
					c-0.8,0.8-1.9,1.4-3.1,1.4H-44.8z M-44.8,491.7h0.3c1.2,0,2.3,0.5,3.1,1.4h-28c0.8-0.8,1.9-1.4,3.1-1.4H-70
					c-1.2,0-2.3-0.5-3.2-1.4h31.5C-42.5,491.2-43.6,491.7-44.8,491.7z M-41.6,476.2c-0.9,0.8-2,1.4-3.2,1.4c1.2,0,2.3,0.5,3.2,1.4
					h-31.5c0.9-0.8,2-1.4,3.2-1.4c-1.2,0-2.3-0.5-3.2-1.4H-41.6z"/>
			</g>
		</g>
	</g>
	<g>
		<path class="st2" d="M-7.2,463.4l-6.9-14.5v14.5c0,1-1.1,1.5-2.1,1.5c-1.1,0-2.1-0.5-2.1-1.5v-23.5c0-1,1-1.5,2.1-1.5
			c1.5,0,2.1,0.4,3.1,2.5l6.2,13.5v-14.5c0-1,1-1.4,2.1-1.4c1,0,2.1,0.4,2.1,1.4v23.5c0,1-1.1,1.5-2.1,1.5
			C-5.8,464.8-6.7,464.5-7.2,463.4z"/>
		<path class="st2" d="M7.3,438.4c3.7,0,7.1,2.7,7.1,7.3c0,7.8-10.1,10.3-10.1,14.1v0.9h8.9c0.7,0,1.3,0.9,1.3,2s-0.6,2.1-1.3,2.1
			H1.9c-0.7,0-1.8-0.6-1.8-1.5v-3.5c0-5.8,10.3-8.9,10.3-14c0-1.5-0.9-3.2-3-3.2c-1.6,0-2.8,0.9-2.8,3.2c0,0.9-0.8,1.7-2.2,1.7
			c-1.1,0-1.9-0.6-1.9-2.5C0.5,440.9,3.8,438.4,7.3,438.4z"/>
		<path class="st2" d="M26.8,457v-0.7c0-2.7-1.5-3.4-3.5-3.4c-0.9,0-1.2-0.9-1.2-1.8s0.3-1.8,1.2-1.8c1.6,0,2.9-0.4,2.9-3.5
			c0-2.4-1.1-3.2-2.8-3.2c-2.1,0-2.8,1-2.8,2.4c0,1.1-0.4,1.8-2,1.8c-1.8,0-2.1-0.5-2.1-2c0-2.6,1.6-6.3,7-6.3
			c3.9,0,6.7,1.7,6.7,6.5c0,2.9-0.9,5.2-2.5,6c1.9,0.8,3.3,2.5,3.3,5.5v0.7c0,5.8-3.4,8-7.7,8c-5.2,0-7.3-3.7-7.3-6.6
			c0-1.4,0.5-1.8,2-1.8c1.7,0,2.1,0.5,2.1,1.7c0,1.6,1.3,2.6,3.3,2.6C25.8,460.9,26.8,459.8,26.8,457z"/>
		<path class="st2" d="M47.2,444.8c0,3-1.2,4.8-3.1,5.6c2.3,0.9,3.8,3.1,3.8,6.8v0.4c0,5.4-3.3,7.5-7.5,7.5s-7.5-2.1-7.5-7.5v-0.4
			c0-3.7,1.5-5.9,3.8-6.8c-1.8-0.7-3.1-2.5-3.1-5.6c0-4.6,2.8-6.4,6.8-6.4S47.2,440.2,47.2,444.8z M43.8,456.3c0-2.8-1.2-4-3.3-4
			s-3.3,1.2-3.3,4v0.7c0,2.9,1.3,4.2,3.3,4.2c2.1,0,3.3-1.3,3.3-4.2V456.3z M37.7,445.4c0,2.2,1,3.1,2.7,3.1s2.7-0.9,2.7-3.1
			s-1-3.1-2.7-3.1C38.7,442.2,37.7,443.1,37.7,445.4z"/>
		<path class="st2" d="M65.4,456.3v0.5c0,6-3.3,8.3-7.5,8.3s-7.5-2.2-7.5-8.3v-10.1c0-6,3.3-8.3,7.7-8.3c5.1,0,7.3,3.6,7.3,6.6
			c0,1.5-0.6,2-1.9,2c-1.1,0-2.2-0.4-2.2-1.8c0-1.7-1.5-2.7-3.3-2.7c-2.2,0-3.5,1.3-3.5,4.2v3.9c1.1-1.4,2.6-1.8,4.2-1.8
			C62.4,448.8,65.4,450.5,65.4,456.3z M54.5,457.1c0,2.9,1.3,4.2,3.4,4.2s3.3-1.3,3.3-4.2v-0.5c0-3-1.2-4.1-3.3-4.1
			c-2,0-3.3,1-3.3,3.8L54.5,457.1L54.5,457.1z"/>
	</g>
	<path class="st2" d="M27.7,478.3H10.1v11.3h17.6V478.3z M33.8,500.2H6.3v6.3h27.5V500.2z M19.8,515H-0.1v6.3h19.9V515z M0.2,500.2
		h-9.6v6.3h9.6V500.2z M26,521.3h38.9V515H26V521.3z M71,521.3h8V515h-8V521.3z M40,500.2v6.3h39v-6.3H40z M4,478.3h-36.7v11.3H4
		V478.3z M-15.6,500.2h-17v6.3h17C-15.6,506.5-15.6,500.2-15.6,500.2z M-6.3,515h-26.4v6.3h26.4V515z"/>
</g>
</svg>
