<?xml version="1.0" encoding="utf-8"?>
<!-- Generator: Adobe Illustrator 19.0.0, SVG Export Plug-In . SVG Version: 6.00 Build 0)  -->
<svg version="1.1" xmlns="http://www.w3.org/2000/svg" xmlns:xlink="http://www.w3.org/1999/xlink" x="0px" y="0px"
	 viewBox="0 0 1280 800" style="enable-background:new 0 0 1280 800;" xml:space="preserve">
<style type="text/css">
	.st0{display:none;}
	.st1{fill:#FFFFFF;}
	.st2{fill:url(#SVGID_1_);}
	.st3{fill:url(#SVGID_2_);}
	.st4{fill:url(#SVGID_3_);}
	.st5{fill:url(#SVGID_4_);}
	.st6{fill:url(#SVGID_5_);}
	.st7{fill:url(#SVGID_6_);}
	.st8{fill:url(#SVGID_7_);}
	.st9{fill:url(#SVGID_8_);}
	.st10{fill:#1B1464;}
	.st11{fill:url(#SVGID_9_);}
	.st12{fill:url(#SVGID_10_);}
	.st13{fill:#333333;}
</style>
<g id="Layer_3" class="st0">
</g>
<g id="Layer_1">
	<rect x="-27" y="-13" class="st1" width="1319" height="835"/>
</g>
<g id="Layer_2">
	<g>
		<g>
			<linearGradient id="SVGID_1_" gradientUnits="userSpaceOnUse" x1="413.7806" y1="553.2671" x2="413.401" y2="472.7964">
				<stop  offset="0" style="stop-color:#004C8F"/>
				<stop  offset="1" style="stop-color:#2980B9"/>
			</linearGradient>
			<path class="st2" d="M391,484.9h44.8v6.2h-18.7v49.8h-7.5v-49.8H391V484.9z"/>
			<linearGradient id="SVGID_2_" gradientUnits="userSpaceOnUse" x1="459.2576" y1="553.0526" x2="458.878" y2="472.5819">
				<stop  offset="0" style="stop-color:#004C8F"/>
				<stop  offset="1" style="stop-color:#2980B9"/>
			</linearGradient>
			<path class="st3" d="M443.1,484.9h6.5v25.9c3.7-4.8,7.7-7.2,12.1-7.2c4.6,0,8,1.1,10.1,3.3c2.2,2.2,3.3,4.8,3.3,7.9v26.2h-6.5
				v-24.6c0-2.4-0.8-4.4-2.3-5.9c-1.1-1.1-2.6-1.6-4.6-1.6c-2.4,0-4.6,1-6.5,2.9c-2.4,2.4-4.3,5.8-5.6,10.1v19h-6.5V484.9z"/>
			<linearGradient id="SVGID_3_" gradientUnits="userSpaceOnUse" x1="501.1681" y1="552.8549" x2="500.7885" y2="472.3842">
				<stop  offset="0" style="stop-color:#004C8F"/>
				<stop  offset="1" style="stop-color:#2980B9"/>
			</linearGradient>
			<path class="st4" d="M489.6,508.2c3.1-3.1,7-4.6,11.8-4.6c4.6,0,8.5,1.6,11.8,4.9c3.1,3.1,4.6,7.7,4.6,14.1h-26.5
				c0,4.6,1.1,8,3.3,10.1c2,2,4.5,2.9,7.5,2.9c3.1,0,5.2-0.7,6.5-2c1.5-1.5,2.3-3.3,2.3-5.2h7.2c-0.9,3.9-2.3,6.9-4.3,8.8
				c-2.8,2.8-6.8,4.3-11.8,4.3c-5.2,0-9.5-1.6-12.8-4.9c-3.5-3.5-5.2-8.2-5.2-14.1C484,516.7,485.9,511.9,489.6,508.2z M494.5,511.8
				c-1.5,1.5-2.5,3.4-2.9,5.6h18.7c0-2.2-0.9-4.1-2.6-5.9c-1.5-1.5-3.7-2.3-6.5-2.3C498.4,509.2,496.2,510,494.5,511.8z"/>
			<path d="M527.2,484.9h26.2c4.8,0,8.7,1.5,11.8,4.6c3.1,3.1,4.6,7.3,4.6,12.8c0,5.5-1.4,9.6-4.3,12.4c-2.8,2.8-6.9,4.3-12.1,4.3
				h-18.7v21.9h-7.5V484.9z M534.8,491.1v21.6h17c3.1,0,5.5-0.9,7.2-2.6c2-2,2.9-4.6,2.9-7.9c0-3.7-0.9-6.4-2.6-8.2
				c-2-2-4.5-2.9-7.5-2.9H534.8z"/>
			<path d="M578.9,484.9h26.2c4.8,0,8.7,1.5,11.8,4.6c3.1,3.1,4.6,7.3,4.6,12.8c0,5.5-1.4,9.6-4.3,12.4c-2.8,2.8-6.9,4.3-12.1,4.3
				h-18.7v21.9h-7.5V484.9z M586.5,491.1v21.6h17c3.1,0,5.5-0.9,7.2-2.6c2-2,2.9-4.6,2.9-7.9c0-3.7-0.9-6.4-2.6-8.2
				c-2-2-4.5-2.9-7.5-2.9H586.5z"/>
			<path d="M638.2,490.5c4.1-4.1,9.5-6.2,16-6.2c6.5,0,11.7,1.9,15.4,5.6c3.9,3.9,6,9,6.2,15.1H668c-0.4-4.6-1.9-8.1-4.3-10.5
				c-2.6-2.6-5.8-3.9-9.5-3.9c-3.9,0-7.4,1.5-10.5,4.6c-3.9,3.9-5.9,9.9-5.9,18c0,8.1,2,14.1,5.9,18c2.8,2.8,6.3,4.3,10.5,4.3
				c4.4,0,7.7-1.2,10.1-3.6c3.1-3.1,4.6-7.4,4.6-13.1h7.9c-0.2,7.4-2.4,13.2-6.5,17.3c-3.7,3.7-9.1,5.6-16,5.6
				c-6.5,0-11.9-2.1-16-6.2c-5.5-5.5-8.2-12.9-8.2-22.3C630,503.5,632.7,496,638.2,490.5z"/>
			<linearGradient id="SVGID_4_" gradientUnits="userSpaceOnUse" x1="710.1393" y1="562.1891" x2="709.3801" y2="471.846">
				<stop  offset="0" style="stop-color:#004C8F"/>
				<stop  offset="1" style="stop-color:#2980B9"/>
			</linearGradient>
			<path class="st5" d="M693.8,491.1c4.6-4.6,10.1-6.9,16.7-6.9s11.9,2.1,16,6.2c3.5,3.5,5.3,7.7,5.6,12.8h-7.9
				c-0.2-3.7-1.5-6.8-3.9-9.2c-2.4-2.4-5.7-3.6-9.8-3.6c-4.1,0-7.6,1.4-10.5,4.3c-3.9,3.9-5.9,10-5.9,18.3c0,7.9,2.1,13.9,6.2,18
				c2.8,2.8,6.8,4.3,11.8,4.3c3.7,0,6.8-1.2,9.2-3.6c2.4-2.4,3.8-4.9,4.3-7.5V519h-9.5v-6.2h17v28.8h-5.6l-2-5.6
				c-3.7,3.7-8.4,5.6-14.1,5.6c-7,0-12.7-2.2-17-6.5c-5.5-5.5-8.2-12.8-8.2-21.9C686.3,503.5,688.8,496.2,693.8,491.1z"/>
			<linearGradient id="SVGID_5_" gradientUnits="userSpaceOnUse" x1="755.0693" y1="561.8116" x2="754.3101" y2="471.4684">
				<stop  offset="0" style="stop-color:#004C8F"/>
				<stop  offset="1" style="stop-color:#2980B9"/>
			</linearGradient>
			<path class="st6" d="M766.8,503.6v7.2c-0.9-0.2-2.1-0.3-3.6-0.3c-3.3,0-6.3,1.4-9.2,4.3c-2.4,2.4-4,4.9-4.9,7.5v18.7h-6.5v-36.7
				h6.5v9.2c1.1-1.7,2.3-3.3,3.6-4.6C756.3,505.3,761,503.6,766.8,503.6z"/>
			<linearGradient id="SVGID_6_" gradientUnits="userSpaceOnUse" x1="788.7814" y1="561.5283" x2="788.0223" y2="471.1852">
				<stop  offset="0" style="stop-color:#004C8F"/>
				<stop  offset="1" style="stop-color:#2980B9"/>
			</linearGradient>
			<path class="st7" d="M776.3,508.5c3.3-3.3,7.3-4.9,12.1-4.9c4.8,0,8.8,1.6,12.1,4.9c3.7,3.7,5.6,8.4,5.6,14.1
				c0,5.7-1.9,10.4-5.6,14.1c-3.3,3.3-7.3,4.9-12.1,4.9c-4.8,0-8.8-1.6-12.1-4.9c-3.7-3.7-5.6-8.4-5.6-14.1
				C770.8,516.9,772.6,512.2,776.3,508.5z M781.9,512.1c-2.6,2.6-3.9,6.1-3.9,10.5c0,4.4,1.2,7.7,3.6,10.1c2,2,4.3,2.9,6.9,2.9
				c2.6,0,4.9-1,6.9-2.9c2.4-2.4,3.6-5.8,3.6-10.1c0-4.4-1.3-7.9-3.9-10.5c-1.7-1.7-3.9-2.6-6.5-2.6
				C785.8,509.5,783.7,510.4,781.9,512.1z"/>
			<linearGradient id="SVGID_7_" gradientUnits="userSpaceOnUse" x1="831.0475" y1="561.1732" x2="830.2883" y2="470.83">
				<stop  offset="0" style="stop-color:#004C8F"/>
				<stop  offset="1" style="stop-color:#2980B9"/>
			</linearGradient>
			<path class="st8" d="M814.6,504.2h6.5v24.6c0,2.6,0.7,4.6,2,5.9c1.1,1.1,2.6,1.6,4.6,1.6c2.8,0,5.3-1.1,7.5-3.3
				c3.3-3.3,4.9-6.7,4.9-10.1v-18.7h6.5v36.7h-6.5v-6.5c-3.5,4.8-7.8,7.2-12.8,7.2c-4.6,0-7.9-1-9.8-2.9c-2-2-2.9-4.5-2.9-7.5V504.2
				z"/>
			<linearGradient id="SVGID_8_" gradientUnits="userSpaceOnUse" x1="872.6135" y1="560.8239" x2="871.8544" y2="470.4807">
				<stop  offset="0" style="stop-color:#004C8F"/>
				<stop  offset="1" style="stop-color:#2980B9"/>
			</linearGradient>
			<path class="st9" d="M862.4,553h-6.5v-48.8h6.5v4.3c2.6-3.3,6-4.9,10.1-4.9c4.6,0,8.3,1.4,11.1,4.3c3.5,3.5,5.2,8.4,5.2,14.7
				c0,6.5-1.8,11.6-5.2,15.1c-2.8,2.8-6.5,4.3-11.1,4.3s-8-1.7-10.1-5.2V553z M865.7,512.4c-2.2,2.2-3.3,4.8-3.3,7.9v4.6
				c0,3.1,1.2,5.8,3.6,8.2c2,2,4.1,2.9,6.5,2.9c2.2,0,4-0.8,5.6-2.3c2.4-2.4,3.6-6.1,3.6-11.1c0-4.8-1.1-8.3-3.3-10.5
				c-1.7-1.7-3.7-2.6-5.9-2.6C870,509.5,867.7,510.5,865.7,512.4z"/>
		</g>
		<path class="st1" d="M634.7,321.4l-0.2,0.3l-0.1-0.2C634.6,321.4,634.7,321.4,634.7,321.4z"/>
		<g>
			<path d="M580.7,400.3c0.4,0,0.8,0,1.2,0l1-2.2c0.1-0.1,0.7-1.5,2.5-4.5c-0.8,0.2-1.5,0.5-2.1,0.8c-3.5,2-7.4,5.3-10.7,8
				C574.9,401.1,577.7,400.3,580.7,400.3z"/>
			<path d="M587.2,408.9c-1.6,0.5-3,1.6-4,3c0.3,0,0.7-0.1,1-0.1l4.5-0.2c0.1-0.3,0.2-0.5,0.4-0.9l0.7-1.9l-0.5-0.5L587.2,408.9z"/>
			<path d="M634.5,365.2c0.3,0,0.7-0.1,1.2-0.5c0.4-0.4,0.5-0.9,0.5-1.1c0-0.3-0.1-0.7-0.5-1.1c-0.4-0.4-0.9-0.5-1.1-0.5
				c-0.2,0-0.7,0.1-1.1,0.5c-0.4,0.4-0.5,0.9-0.5,1.1c0,0.2,0.1,0.7,0.5,1.1C633.7,365.2,634.2,365.2,634.5,365.2z"/>
			<path d="M648.6,353.3c1,0,2-0.4,2.7-1.1c0.7-0.7,1.1-1.7,1.1-2.7c0-1-0.4-2-1.1-2.7c-0.7-0.7-1.7-1.1-2.7-1.1c-1,0-2,0.4-2.7,1.1
				c-1.5,1.5-1.5,3.9,0,5.4C646.6,352.9,647.6,353.3,648.6,353.3z"/>
			<path d="M639,247c-60,0-108.7,48.7-108.7,108.7c0,60,48.7,108.7,108.7,108.7s108.7-48.7,108.7-108.7C747.7,295.7,699,247,639,247
				z M672,348l-2-0.5c0.1,1.7,0,3.4-0.5,5l-0.1,0.5l-0.3,0.4c-4.9,8.2-12.7,16.9-23.2,26c-4.1,3.5-8.1,7-12.3,10.4l-0.5-0.4
				c0,0.1-0.1,0.2-0.1,0.4l-0.4,0.9l-0.8,0.6c-0.6,0.5-1.1,0.9-1.6,1.3c1.3,8.2,1.5,22.8-10.2,33.4c-6.2,5.5-17.6,14.8-24.9,14.8h0
				c-2.4,0-3.9-1-4.7-1.8c-0.8-0.8-1.7-2.1-1.7-4.3c0-1.9,1-3.2,4.8-7.8c0.4-0.4,0.7-0.9,1.1-1.4c-0.7,0.7-1.5,1.4-2.5,2
				c-1.7,1.1-3.4,1.7-4.9,2.2c-1.4,0.5-2.6,0.9-3.3,1.5l-10.3,9l3-10.3c-1.1,0.5-1.9,1.1-2.4,1.8l-3.8,5.1l-2.2-4.2l-1,2.8
				l-2.3-15.1c-0.4-2.6,0.2-10.1,4.5-15.1c0.1-0.1,0.2-0.2,0.3-0.4c-3.2,2.6-4.9,3.7-6.8,3.7c-1,0-1.9-0.3-2.7-0.9
				c-1.9-1.4-2.9-3.5-3.2-5.8c-0.5-5.5,4-13.1,14.5-24.6c6.4-7.1,15.3-10.8,25.8-10.8c2.9,0,5.5,0.3,7.6,0.6
				c0.9-1.1,1.8-2.3,2.8-3.4l0.9-1.1l0.4-0.1l-0.2-0.2c3.1-3.7,6.1-7.3,9.2-10.8c10.4-12,20.3-20.4,29.5-25l1-0.5l1.1,0.1
				c0.8,0.1,1.6,0.2,2.4,0.4l-0.2-1.9c3.7-1.4,7.2-2.1,10.5-2.1c4,0,7.6,1.2,9.6,3.2C674.5,328.3,677.4,335.9,672,348z"/>
			<path d="M603.7,412c-2.9,1.8-4.3,2.4-4.5,2.5l-1.6,0.7c0.3,2.9,0,5.9-1.8,8.7c2.5-3.1,5.1-6.6,7-9.8
				C603.2,413.5,603.5,412.8,603.7,412z"/>
		</g>
		<path class="st10" d="M608.2,370.7c-5.6-1.3-21.7-3.9-32.8,8.3c-14.1,15.6-15.3,21.9-11.8,24.6c1.2,1,10.7-8.9,18.6-13.6
			c4-2.4,9.8-1.9,12.6-1.7C597.9,383.9,602.3,378.1,608.2,370.7z"/>
		<path class="st10" d="M626.6,389.3c-8.1,6.5-13.5,10.4-17.6,13.4c0.2,2.8,0.7,8.5-1.7,12.5c-4.7,8-13.7,17.4-13.7,18.6
			c0,4.4,9,2.3,24.6-11.7C630.5,411,627.9,394.9,626.6,389.3z"/>
		<linearGradient id="SVGID_9_" gradientUnits="userSpaceOnUse" x1="569.6156" y1="415.8797" x2="594.7339" y2="415.8797">
			<stop  offset="0" style="stop-color:#F8951D"/>
			<stop  offset="1" style="stop-color:#FECE06"/>
		</linearGradient>
		<path class="st11" d="M593.9,411c-1.4,4.1-3.7,4.9-6.2,5.4c-2.7,0.5-4.6,1.8-4.6,1.8s0.3-2,2.4-3.4c-3.3,0.2-6.3,2.6-7.1,3.9
			c-1-5.9,2.7-12.7,8.7-14.5c-16.7-4.7-17.7,12.4-17.3,14.8c0.6-1.5,2.2-3.3,4-3.2c-4.4,7.6-1.8,12.8-1.8,12.8
			c2.6-3.6,8.2-4.8,12.8-5.3c-1.2,1.3-1.9,2.2-2.5,4.1c2.4-2.1,6-2.2,8.7-4C594.6,420.9,595.7,417.5,593.9,411z"/>
		<linearGradient id="SVGID_10_" gradientUnits="userSpaceOnUse" x1="654.2882" y1="335.4413" x2="672.0645" y2="335.4413">
			<stop  offset="0" style="stop-color:#004C8F"/>
			<stop  offset="1" style="stop-color:#2980B9"/>
		</linearGradient>
		<path class="st12" d="M664.8,333.5c3.2,3.7,4.7,8,4.5,11.8c4.6-10.3,2.3-16.3,0.8-17.9c-1.4-1.5-6.8-3.6-15.8-0.1
			C657.9,327.9,661.8,330,664.8,333.5z"/>
		<path class="st13" d="M662,336c-3.5-4.1-7.9-6.5-11.7-6.8c-7.4,3.7-16.8,10.9-28.3,24c-3.4,3.9-6.4,7.4-9.2,10.7
			c4.7-1.8,11.2,0.3,15.8,5.6c4.5,5.2,5.7,11.9,3.3,16.3c3.7-3.1,7.8-6.5,12.2-10.3c11.4-9.8,18.3-18.2,22.4-25.1
			C667.8,346.5,666.1,340.8,662,336z M639.4,366.6c-2.2,2.2-5.8,2.2-7.9,0c-2.2-2.2-2.2-5.8,0-7.9c2.2-2.2,5.8-2.2,7.9,0
			C641.6,360.8,641.6,364.4,639.4,366.6z M655.1,354c-3,3-8,3-11,0c-3-3-3-8,0-11c3.1-3,8-3,11,0C658.2,346.1,658.2,351,655.1,354z"
			/>
		<path class="st1" d="M630.3,387.2c1.7-3.9,0.1-10.1-4.4-15.3c-4.3-5-10-7.5-14.1-6.7c-20.1,24.3-24.3,33.4-24.3,33.4l5,5l1.1,1.1
			l5,5C598.6,409.9,607.3,406,630.3,387.2z"/>
		<polygon class="st1" points="597.3,289.7 599.1,293.3 603.1,293.9 600.2,296.7 600.9,300.8 597.3,298.9 593.7,300.8 594.4,296.7 
			591.5,293.9 595.5,293.3 		"/>
		<polygon class="st1" points="604.3,256.7 606.1,260.3 610.1,260.9 607.2,263.7 607.9,267.8 604.3,265.9 600.7,267.8 601.4,263.7 
			598.5,260.9 602.5,260.3 		"/>
		<polygon class="st1" points="618.3,301.7 620.1,305.3 624.1,305.9 621.2,308.7 621.9,312.8 618.3,310.9 614.7,312.8 615.4,308.7 
			612.5,305.9 616.5,305.3 		"/>
		<polygon class="st1" points="631.3,318.7 633.1,322.3 637.1,322.9 634.2,325.7 634.9,329.8 631.3,327.9 627.7,329.8 628.4,325.7 
			625.5,322.9 629.5,322.3 		"/>
		<polygon class="st1" points="618.3,278.7 620.1,282.3 624.1,282.9 621.2,285.7 621.9,289.8 618.3,287.9 614.7,289.8 615.4,285.7 
			612.5,282.9 616.5,282.3 		"/>
		<polygon class="st1" points="633.3,256.7 635.1,260.3 639.1,260.9 636.2,263.7 636.9,267.8 633.3,265.9 629.7,267.8 630.4,263.7 
			627.5,260.9 631.5,260.3 		"/>
		<polygon class="st1" points="658.3,256.7 660.1,260.3 664.1,260.9 661.2,263.7 661.9,267.8 658.3,265.9 654.7,267.8 655.4,263.7 
			652.5,260.9 656.5,260.3 		"/>
		<polygon class="st1" points="648.3,275.7 650.1,279.3 654.1,279.9 651.2,282.7 651.9,286.8 648.3,284.9 644.7,286.8 645.4,282.7 
			642.5,279.9 646.5,279.3 		"/>
		<polygon class="st1" points="648.3,299.7 650.1,303.3 654.1,303.9 651.2,306.7 651.9,310.8 648.3,308.9 644.7,310.8 645.4,306.7 
			642.5,303.9 646.5,303.3 		"/>
		<polygon class="st1" points="670.3,284.7 672.1,288.3 676.1,288.9 673.2,291.7 673.9,295.8 670.3,293.9 666.7,295.8 667.4,291.7 
			664.5,288.9 668.5,288.3 		"/>
		<polygon class="st1" points="690.3,272.7 692.1,276.3 696.1,276.9 693.2,279.7 693.9,283.8 690.3,281.9 686.7,283.8 687.4,279.7 
			684.5,276.9 688.5,276.3 		"/>
		<polygon class="st1" points="722.3,353.7 724.1,357.3 728.1,357.9 725.2,360.7 725.9,364.8 722.3,362.9 718.7,364.8 719.4,360.7 
			716.5,357.9 720.5,357.3 		"/>
		<polygon class="st1" points="672.3,307.7 674.1,311.3 678.1,311.9 675.2,314.7 675.9,318.8 672.3,316.9 668.7,318.8 669.4,314.7 
			666.5,311.9 670.5,311.3 		"/>
		<polygon class="st1" points="690.3,295.7 692.1,299.3 696.1,299.9 693.2,302.7 693.9,306.8 690.3,304.9 686.7,306.8 687.4,302.7 
			684.5,299.9 688.5,299.3 		"/>
		<polygon class="st1" points="713.3,293.7 715.1,297.3 719.1,297.9 716.2,300.7 716.9,304.8 713.3,302.9 709.7,304.8 710.4,300.7 
			707.5,297.9 711.5,297.3 		"/>
		<polygon class="st1" points="701.3,315.7 703.1,319.3 707.1,319.9 704.2,322.7 704.9,326.8 701.3,324.9 697.7,326.8 698.4,322.7 
			695.5,319.9 699.5,319.3 		"/>
		<polygon class="st1" points="690.3,334.7 692.1,338.3 696.1,338.9 693.2,341.7 693.9,345.8 690.3,343.9 686.7,345.8 687.4,341.7 
			684.5,338.9 688.5,338.3 		"/>
		<polygon class="st1" points="710.3,334.7 712.1,338.3 716.1,338.9 713.2,341.7 713.9,345.8 710.3,343.9 706.7,345.8 707.4,341.7 
			704.5,338.9 708.5,338.3 		"/>
		<polygon class="st1" points="676.3,353.7 678.1,357.3 682.1,357.9 679.2,360.7 679.9,364.8 676.3,362.9 672.7,364.8 673.4,360.7 
			670.5,357.9 674.5,357.3 		"/>
		<polygon class="st1" points="704.3,353.7 706.1,357.3 710.1,357.9 707.2,360.7 707.9,364.8 704.3,362.9 700.7,364.8 701.4,360.7 
			698.5,357.9 702.5,357.3 		"/>
		<polygon class="st1" points="707.3,374.7 709.1,378.3 713.1,378.9 710.2,381.7 710.9,385.8 707.3,383.9 703.7,385.8 704.4,381.7 
			701.5,378.9 705.5,378.3 		"/>
		<polygon class="st1" points="725.3,392.7 727.1,396.3 731.1,396.9 728.2,399.7 728.9,403.8 725.3,401.9 721.7,403.8 722.4,399.7 
			719.5,396.9 723.5,396.3 		"/>
		<polygon class="st1" points="734.3,368.7 736.1,372.3 740.1,372.9 737.2,375.7 737.9,379.8 734.3,377.9 730.7,379.8 731.4,375.7 
			728.5,372.9 732.5,372.3 		"/>
		<polygon class="st1" points="728.3,306.7 730.1,310.3 734.1,310.9 731.2,313.7 731.9,317.8 728.3,315.9 724.7,317.8 725.4,313.7 
			722.5,310.9 726.5,310.3 		"/>
		<polygon class="st1" points="731.3,333.7 733.1,337.3 737.1,337.9 734.2,340.7 734.9,344.8 731.3,342.9 727.7,344.8 728.4,340.7 
			725.5,337.9 729.5,337.3 		"/>
		<polygon class="st1" points="579.3,274.6 581.5,279 586.3,279.7 582.8,283.1 583.6,287.9 579.3,285.6 575,287.9 575.8,283.1 
			572.4,279.7 577.2,279 		"/>
	</g>
</g>
</svg>
